<svg width="15" height="15" viewBox="0 0 15 15" fill="none" xmlns="http://www.w3.org/2000/svg">
<path d="M14.5215 7.75C14.5215 11.6328 11.377 14.75 7.52148 14.75C3.63867 14.75 0.521484 11.6328 0.521484 7.75C0.521484 3.89453 3.63867 0.75 7.52148 0.75C11.377 0.75 14.5215 3.89453 14.5215 7.75ZM2.87305 3.75781C1.94336 4.82422 1.39648 6.21875 1.39648 7.75C1.39648 11.1406 4.13086 13.875 7.52148 13.875C9.05273 13.875 10.4473 13.3281 11.5137 12.3984L2.87305 3.75781ZM13.6465 7.75C13.6465 4.38672 10.8848 1.625 7.52148 1.625C5.96289 1.625 4.56836 2.19922 3.50195 3.12891L12.1426 11.7695C13.0723 10.7031 13.6465 9.30859 13.6465 7.75Z" fill="#F5222D"/>
</svg>
