<svg width="19" height="20" viewBox="0 0 19 20" fill="none" xmlns="http://www.w3.org/2000/svg">
<path d="M7 1.25V2.5H12V1.25C12 0.585938 12.5469 0 13.25 0C13.9141 0 14.5 0.585938 14.5 1.25V2.5H16.375C17.3906 2.5 18.25 3.35938 18.25 4.375V6.25H0.75V4.375C0.75 3.35938 1.57031 2.5 2.625 2.5H4.5V1.25C4.5 0.585938 5.04688 0 5.75 0C6.41406 0 7 0.585938 7 1.25ZM0.75 7.5H18.25V18.125C18.25 19.1797 17.3906 20 16.375 20H2.625C1.57031 20 0.75 19.1797 0.75 18.125V7.5ZM3.875 10C3.52344 10 3.25 10.3125 3.25 10.625V14.375C3.25 14.7266 3.52344 15 3.875 15H7.625C7.9375 15 8.25 14.7266 8.25 14.375V10.625C8.25 10.3125 7.9375 10 7.625 10H3.875Z" fill="#00A1DE"/>
</svg>
