<svg width="18" height="19" viewBox="0 0 18 19" fill="none" xmlns="http://www.w3.org/2000/svg">
<path d="M9.5625 8.47656C9.73828 8.51172 10.1953 8.61719 10.4062 8.65234C10.6875 8.72266 10.8633 9.03906 10.793 9.35547C10.7227 9.63672 10.4062 9.8125 10.0898 9.74219C9.94922 9.70703 9.49219 9.60156 9.31641 9.56641C8.85938 9.49609 8.50781 9.56641 8.22656 9.67188C7.98047 9.8125 7.875 9.95312 7.875 10.0586C7.83984 10.2344 7.875 10.3047 7.875 10.3398C7.91016 10.375 7.94531 10.4453 8.05078 10.5156C8.29688 10.6914 8.64844 10.7969 9.14062 10.9375H9.17578C9.59766 11.0781 10.1602 11.2539 10.5469 11.5352C10.793 11.6758 10.9688 11.9219 11.1094 12.2031C11.25 12.4844 11.25 12.8008 11.2148 13.1523C11.1094 13.75 10.6875 14.1719 10.1602 14.418C9.98438 14.4883 9.77344 14.5586 9.5625 14.5938V14.875C9.5625 15.1914 9.28125 15.4375 9 15.4375C8.68359 15.4375 8.4375 15.1914 8.4375 14.875V14.5586C8.08594 14.4883 7.59375 14.3125 7.27734 14.207C7.20703 14.207 7.17188 14.1719 7.10156 14.1719C6.82031 14.0664 6.67969 13.75 6.75 13.4336C6.85547 13.1523 7.17188 12.9766 7.48828 13.082C7.52344 13.1172 7.62891 13.1523 7.69922 13.1523C8.01562 13.293 8.40234 13.3984 8.64844 13.4336C9.10547 13.5039 9.49219 13.4688 9.73828 13.3633C9.94922 13.2578 10.0547 13.1523 10.0898 12.9414C10.125 12.8008 10.0898 12.6953 10.0898 12.6602C10.0547 12.5898 9.98438 12.5195 9.91406 12.4492C9.66797 12.2734 9.31641 12.168 8.82422 12.0273L8.75391 11.9922C8.33203 11.8516 7.80469 11.7109 7.41797 11.4297C7.20703 11.2891 6.99609 11.0781 6.85547 10.832C6.75 10.5156 6.71484 10.1992 6.75 9.88281C6.85547 9.28516 7.27734 8.89844 7.76953 8.65234C7.98047 8.58203 8.19141 8.51172 8.4375 8.47656V8.125C8.4375 7.84375 8.68359 7.5625 9 7.5625C9.28125 7.5625 9.5625 7.84375 9.5625 8.125V8.47656ZM6.29297 4.50391L4.25391 1.58594C3.86719 1.02344 4.28906 0.25 4.95703 0.25H13.0078C13.6758 0.25 14.0977 1.02344 13.7109 1.58594L11.6719 4.50391C11.9531 4.67969 12.2695 4.89062 12.6211 5.13672C14.7656 6.71875 18 9.88281 18 14.875C18 16.7383 16.4883 18.25 14.625 18.25H3.375C1.47656 18.25 0 16.7383 0 14.875C0 9.88281 3.19922 6.71875 5.34375 5.13672C5.69531 4.89062 6.01172 4.67969 6.29297 4.50391ZM6.89062 5.45312C4.95703 6.68359 1.125 9.70703 1.125 14.875C1.125 16.1406 2.10938 17.125 3.375 17.125H14.625C15.8555 17.125 16.875 16.1406 16.875 14.875C16.875 9.70703 13.0078 6.68359 11.0742 5.45312L10.8984 5.3125H7.06641L6.89062 5.45312ZM10.5117 4.1875L12.4805 1.375H5.48438L7.45312 4.1875H10.5117Z" fill="#24282C"/>
</svg>
