<svg width="15" height="15" viewBox="0 0 15 15" fill="none" xmlns="http://www.w3.org/2000/svg">
<path d="M7.45898 7.14844C7.5957 7.17578 7.95117 7.25781 8.11523 7.28516C8.33398 7.33984 8.4707 7.58594 8.41602 7.83203C8.36133 8.05078 8.11523 8.1875 7.86914 8.13281C7.75977 8.10547 7.4043 8.02344 7.26758 7.99609C6.91211 7.94141 6.63867 7.99609 6.41992 8.07812C6.22852 8.1875 6.14648 8.29688 6.14648 8.37891C6.11914 8.51562 6.14648 8.57031 6.14648 8.59766C6.17383 8.625 6.20117 8.67969 6.2832 8.73438C6.47461 8.87109 6.74805 8.95312 7.13086 9.0625H7.1582C7.48633 9.17188 7.92383 9.30859 8.22461 9.52734C8.41602 9.63672 8.55273 9.82812 8.66211 10.0469C8.77148 10.2656 8.77148 10.5117 8.74414 10.7852C8.66211 11.25 8.33398 11.5781 7.92383 11.7695C7.78711 11.8242 7.62305 11.8789 7.45898 11.9062V12.125C7.45898 12.3711 7.24023 12.5625 7.02148 12.5625C6.77539 12.5625 6.58398 12.3711 6.58398 12.125V11.8789C6.31055 11.8242 5.92773 11.6875 5.68164 11.6055C5.62695 11.6055 5.59961 11.5781 5.54492 11.5781C5.32617 11.4961 5.2168 11.25 5.27148 11.0039C5.35352 10.7852 5.59961 10.6484 5.8457 10.7305C5.87305 10.7578 5.95508 10.7852 6.00977 10.7852C6.25586 10.8945 6.55664 10.9766 6.74805 11.0039C7.10352 11.0586 7.4043 11.0312 7.5957 10.9492C7.75977 10.8672 7.8418 10.7852 7.86914 10.6211C7.89648 10.5117 7.86914 10.4297 7.86914 10.4023C7.8418 10.3477 7.78711 10.293 7.73242 10.2383C7.54102 10.1016 7.26758 10.0195 6.88477 9.91016L6.83008 9.88281C6.50195 9.77344 6.0918 9.66406 5.79102 9.44531C5.62695 9.33594 5.46289 9.17188 5.35352 8.98047C5.27148 8.73438 5.24414 8.48828 5.27148 8.24219C5.35352 7.77734 5.68164 7.47656 6.06445 7.28516C6.22852 7.23047 6.39258 7.17578 6.58398 7.14844V6.875C6.58398 6.65625 6.77539 6.4375 7.02148 6.4375C7.24023 6.4375 7.45898 6.65625 7.45898 6.875V7.14844ZM4.91602 4.05859L3.33008 1.78906C3.0293 1.35156 3.35742 0.75 3.87695 0.75H10.1387C10.6582 0.75 10.9863 1.35156 10.6855 1.78906L9.09961 4.05859C9.31836 4.19531 9.56445 4.35938 9.83789 4.55078C11.5059 5.78125 14.0215 8.24219 14.0215 12.125C14.0215 13.5742 12.8457 14.75 11.3965 14.75H2.64648C1.16992 14.75 0.0214844 13.5742 0.0214844 12.125C0.0214844 8.24219 2.50977 5.78125 4.17773 4.55078C4.45117 4.35938 4.69727 4.19531 4.91602 4.05859ZM5.38086 4.79688C3.87695 5.75391 0.896484 8.10547 0.896484 12.125C0.896484 13.1094 1.66211 13.875 2.64648 13.875H11.3965C12.3535 13.875 13.1465 13.1094 13.1465 12.125C13.1465 8.10547 10.1387 5.75391 8.63477 4.79688L8.49805 4.6875H5.51758L5.38086 4.79688ZM8.19727 3.8125L9.72852 1.625H4.28711L5.81836 3.8125H8.19727Z" fill="#24282C"/>
</svg>
