<svg width="343" height="221" viewBox="0 0 343 221" fill="none" xmlns="http://www.w3.org/2000/svg">
<g clip-path="url(#clip0_1406_25311)">
<path d="M277.964 220.114C277.964 220.114 311.91 219.304 326.415 198.666C352.692 161.279 340.85 128.491 294.068 130.932C241.733 133.662 248.187 17.7639 157.567 73.5648C137.89 85.682 94.0958 60.2352 76.5995 113.251C72.4395 125.858 41.1931 126.736 21.0005 136.846C-10.6746 152.705 -1.72949 220.378 28.1948 220.645C58.1177 220.912 277.964 220.114 277.964 220.114Z" fill="#EBF2F9"/>
<path d="M118.864 46.4461H117.238V31.5531L116.728 31.5075V25.5875L116.875 25.0972L45.8259 3.62781L16.1674 23.7013L16.4532 24.126C15.4917 24.126 14.7037 24.915 14.7037 25.8809V36.1146C14.7037 37.0792 15.4903 37.8696 16.4532 37.8696H31.3199C32.2814 37.8696 33.0694 37.0805 33.0694 36.1146V32.0206H42.98V220.329H54.6402V32.0206H102.603L115.971 46.4461H113.228C112.266 46.4461 111.479 47.2351 111.479 48.201V49.956C111.479 50.9206 112.265 51.711 113.228 51.711H118.864C119.825 51.711 120.613 50.9219 120.613 49.956V48.201C120.613 47.2351 119.825 46.4461 118.864 46.4461ZM45.9955 4.74776L114.96 25.5875H33.0413C32.9011 24.761 32.1813 24.126 31.3185 24.126H17.364L45.9955 4.74776ZM110.938 32.0206L116.218 32.4895V45.2096L103.993 32.0206H110.938Z" fill="#D2E4FF"/>
<path d="M92.1754 220.298H40.8779C43.3486 218.469 52.2149 212.091 60.2452 208.647C63.5732 207.22 66.757 206.297 69.2824 206.411C77.2927 206.771 88.5201 216.822 92.1754 220.298Z" fill="#E27F2B"/>
<path d="M75.8691 220.298H24.5717C28.0653 217.711 44.3556 206.024 52.9761 206.411C55.2251 206.513 57.7278 207.378 60.2452 208.647C66.6943 211.897 73.2395 217.797 75.8691 220.298Z" fill="#E69D43"/>
<path d="M324.047 57.2036L324.242 56.9128L303.897 43.1438L255.161 57.8707L255.262 58.207V62.2675L254.913 62.2983V72.5145H253.797C253.138 72.5145 252.598 73.0558 252.598 73.7176V74.9206C252.598 75.5824 253.138 76.1236 253.797 76.1236H257.664C258.323 76.1236 258.863 75.5824 258.863 74.9206V73.7176C258.863 73.0558 258.323 72.5145 257.664 72.5145H255.782L264.953 62.6198H297.852V191.79H305.851V62.6198H312.65V65.4277C312.65 66.0895 313.189 66.6308 313.849 66.6308H324.047C324.706 66.6308 325.246 66.0895 325.246 65.4277V58.4079C325.246 57.7448 324.706 57.2036 324.047 57.2036ZM303.782 43.9114L323.42 57.2036H313.849C313.257 57.2036 312.763 57.6389 312.667 58.207H256.475L303.782 43.9114ZM255.612 71.6665V62.9413L259.234 62.6198H263.998L255.612 71.6665Z" fill="#EBF2F9"/>
<path d="M227.57 10.4641H160.283V220.502H227.57V10.4641Z" fill="#D2E4FF"/>
<path opacity="0.5" d="M208.985 39.4464H160.283V70.2171H208.985V39.4464Z" fill="#AED3FF"/>
<path opacity="0.5" d="M208.985 95.7913H160.283V126.562H208.985V95.7913Z" fill="#AED3FF"/>
<path opacity="0.5" d="M208.985 151.41H160.283V182.181H208.985V151.41Z" fill="#AED3FF"/>
<path d="M311.45 181.984H302.37V153.529H227.57V10.4641H208.985V220.621H227.57V220.503H302.37H311.45V181.984Z" fill="#AED3FF"/>
<path d="M342.663 221H0.336543C0.15091 221 0 220.849 0 220.662C0 220.476 0.15091 220.325 0.336543 220.325H342.663C342.849 220.325 343 220.476 343 220.662C343 220.849 342.849 221 342.663 221Z" fill="#224850"/>
<path d="M241.479 220.33C241.479 220.33 241.612 217.423 242.39 215.864C243.167 214.304 249.385 215.376 249.385 215.376C249.385 215.376 250.818 217.978 250.624 220.317L241.479 220.33Z" fill="#1B5B62"/>
<path d="M224.791 220.33C224.791 220.33 224.924 217.423 225.701 215.864C226.479 214.304 232.697 215.376 232.697 215.376C232.697 215.376 234.13 217.978 233.936 220.317L224.791 220.33Z" fill="#1B5B62"/>
<path d="M245.508 96.9459C244.731 97.5099 237.701 101.191 237.701 101.191L230.286 95.8889C230.286 95.8889 232.538 95.5594 232.598 95.542C233.267 95.3544 233.236 93.5552 233.32 91.6382C233.334 91.3421 233.35 91.0447 233.371 90.7487L240.631 90.4834L240.636 90.5745C240.642 90.6669 240.65 90.7634 240.656 90.8639L240.671 91.0715C240.675 91.1425 240.682 91.2149 240.687 91.2899C240.818 92.9738 241.098 95.3531 241.634 95.6304C241.94 95.7898 244.007 95.7643 245.508 96.9459Z" fill="#874E05"/>
<path d="M240.688 91.2912C240.089 92.4929 238.756 94.5854 236.778 94.5158C234.89 94.4488 233.813 92.726 233.32 91.6382C233.334 91.3421 233.35 91.0447 233.371 90.7487L240.631 90.4834L240.636 90.5745L240.656 90.8639L240.671 91.0715C240.676 91.1452 240.683 91.2162 240.688 91.2912Z" fill="#793800"/>
<path d="M232.508 74.5146C232.508 74.5146 236.01 71.0168 240.141 74.5856C240.141 74.5843 237.685 74.0739 232.508 74.5146Z" fill="#207C8B"/>
<path d="M231.209 87.3807C231.209 87.3807 230.101 85.0778 229.415 82.3958C228.927 80.4815 229.374 73.2138 236.658 73.7068C236.658 73.7068 238.767 73.7564 240.833 74.9406C242.477 75.8824 244.906 78.0017 242.85 84.4683L242.354 86.6385L231.209 87.3807Z" fill="#640700"/>
<path d="M241.397 90.4325C239.517 92.2357 237.181 94.639 232.147 90.1954C231.161 89.3259 231.228 87.9889 231.17 86.0692C231.101 83.7971 230.556 82.4052 230.808 81.095C231.109 79.5276 232.444 78.8203 235.218 78.5778C240.309 78.1344 242.882 79.2852 242.541 81.8198C241.779 87.4759 243.31 88.5985 241.397 90.4325Z" fill="#874E05"/>
<path d="M237.249 78.4854C237.249 78.4854 240.268 78.4211 240.957 79.4339C241.646 80.4467 241.742 81.5787 242.089 82.1494C242.436 82.7201 242.379 83.3604 242.379 83.3604L243.048 78.8417L238.964 78.0272L237.249 78.4854Z" fill="#640700"/>
<path d="M254.851 103.41C254.851 103.41 253.562 107.22 248.338 107.918C248.196 107.936 248.051 107.953 247.904 107.967H226.626C226.626 107.967 226.587 107.955 226.512 107.932C225.685 107.67 220.603 105.922 220.067 102.654C220.067 102.654 222.739 97.1482 224.78 96.465C225.374 96.2654 226.198 96.1153 227.064 96.0028C227.948 95.8889 228.88 95.8126 229.661 95.763C230.736 95.696 231.527 95.6786 231.527 95.6786C231.527 95.6786 233.184 99.0492 237.217 98.9983C241.251 98.95 242.184 95.7282 242.184 95.7282C242.184 95.7282 243.317 95.7603 244.82 95.9237C245.65 96.0135 246.591 96.1421 247.519 96.327C249.093 96.6418 250.624 97.1147 251.499 97.8287C253.831 99.7297 254.851 103.41 254.851 103.41Z" fill="#9ED9F0"/>
<path d="M249.788 132.877C249.563 131.615 249.225 129.694 248.96 128.005C248.962 127.982 249.75 118.466 250.041 116.86C250.332 115.252 248.351 106.502 248.351 106.502C247.891 105.162 247.109 104.754 246.511 104.754L247.518 96.3284C246.59 96.1422 245.648 96.0136 244.819 95.9252L244.337 104.755L244.33 104.882C243.227 104.944 241.851 105.017 240.569 105.075C239.289 105.134 238.101 105.176 237.372 105.176C235.887 105.176 232.479 105.004 230.217 104.881L230.207 104.755L229.661 95.7644C228.88 95.814 227.949 95.8903 227.064 96.0042L228.025 104.755V104.756C227.391 104.756 226.663 105.886 226.561 106.513L226.464 109.251C225.985 110.629 224.992 113.69 224.828 115.839C224.61 118.681 225.794 128.563 225.802 128.632C225.759 129.809 225.675 131.315 225.514 132.773C224.625 135.189 220.834 146.428 221.22 161.539C221.58 175.646 221.792 199.75 223.45 211.454C223.72 213.353 224.025 214.926 224.378 216.077C224.556 216.657 225.055 217.077 225.655 217.161C227.555 217.424 231.838 217.912 233.681 217.24C234.564 216.917 235.197 211.996 235.644 205.654C236.073 199.573 236.331 192.185 236.473 186.287C236.475 186.287 236.475 186.285 236.475 186.284C236.59 181.582 236.634 177.829 236.634 176.44C236.634 173.297 237.374 164.075 237.619 158.651C237.626 158.497 237.849 158.495 237.86 158.648C237.86 158.649 237.86 158.649 237.86 158.649C238.231 165.089 239.529 174.855 239.549 177.026C239.597 182.289 239.293 216.105 241.586 217.24C243.339 218.108 247.471 217.451 249.445 217.183C250.16 217.087 250.746 216.576 250.947 215.881C253.414 207.373 253.632 177.808 254.048 161.539C254.425 146.638 250.744 135.503 249.788 132.877Z" fill="#207C8B"/>
<path d="M230.462 138.962C229.733 139.547 227.353 139.302 226.431 138.524C225.506 137.743 223.661 137.986 223.224 137.694C223.193 137.674 214.601 127.459 213.669 123.16C212.729 118.823 218.677 106.885 220.36 103.631C221.606 106.271 225.756 107.697 226.497 107.933C226.572 107.955 226.611 107.967 226.611 107.967H226.841C225.44 111.765 221.253 118.603 219.64 121.179C219.239 121.819 219.188 122.621 219.506 123.308C221.579 127.766 223.606 131.525 224.494 134.131C224.67 134.42 225.05 134.937 225.506 134.868C226.139 134.77 228.18 134.331 229.2 135.842C230.221 137.354 231.192 138.378 230.462 138.962Z" fill="#874E05"/>
<path d="M243.544 74.6165C243.544 74.6165 242.984 73.8542 241.981 72.9982C241.822 72.8602 241.651 72.7222 241.47 72.5842C239.625 71.1762 236.672 69.8017 233.112 71.2914C232.148 71.6947 231.345 72.2426 230.68 72.8776C230.523 73.0276 230.373 73.1803 230.233 73.3398C227.146 76.7747 227.408 82.1614 227.408 82.1614L245.217 81.9699C245.273 76.9836 243.544 74.6165 243.544 74.6165Z" fill="#FFA412"/>
<path d="M240.213 82.0248C240.163 81.2733 239.822 75.1095 241.981 73.0022C241.822 72.8629 241.859 72.8883 241.678 72.749C239.375 75.1725 239.229 81.2425 239.237 82.0356L233.543 82.0972C233.375 77.7219 230.967 73.3653 230.679 72.879C230.521 73.029 230.492 73.0585 230.35 73.2166C230.768 73.9534 232.34 78.172 232.49 82.1079L227.406 82.1628C227.406 82.1628 232.149 83.3926 235.722 83.3484C239.294 83.3042 245.214 81.9713 245.214 81.9713L240.213 82.0248Z" fill="#E27F2B"/>
<path d="M231.137 105.677C229.315 109.185 224.142 109.843 224.142 109.843C225.818 105.749 222.44 104.459 220.352 100.267C218.263 96.0752 221.954 93.2981 221.954 93.2981C219.67 93.7362 219.232 96.8067 219.232 96.8067C219.039 94.7597 220.739 91.3007 226.132 90.6174C230.079 90.1178 231.033 88.7821 231.26 88.1029C231.349 88.9844 231.562 89.6743 232.152 90.1955C232.569 90.5639 232.968 90.884 233.349 91.1627C233.339 91.3221 233.332 91.4815 233.326 91.6396C233.303 92.1795 233.288 92.71 233.263 93.1963C232.558 94.0403 232.578 94.9379 232.698 95.5019C232.773 95.8528 232.885 96.0752 232.885 96.0752C233.45 96.8629 233.737 97.6386 233.821 98.4129C234.072 100.732 232.502 103.045 231.137 105.677Z" fill="black"/>
<path d="M249.748 132.648L248.962 128.006C245.13 129.431 241.507 130.053 238.309 130.224C237.932 129.528 237.245 129.017 236.412 128.896L233.586 128.486C232.471 128.323 231.42 128.906 230.93 129.857C228.216 129.435 226.384 128.818 225.803 128.606L225.802 128.632L225.52 132.708V132.719C227.152 133.154 228.718 133.493 230.214 133.75L230.131 134.317C229.924 135.726 230.893 137.039 232.297 137.25L235.429 137.721C236.924 137.946 238.288 136.84 238.382 135.327L238.437 134.452C244.406 134.422 248.374 133.162 249.748 132.648Z" fill="#1B5B62"/>
<path d="M261.199 123.16C260.268 127.458 251.674 137.674 251.643 137.694C251.569 137.744 251.452 137.779 251.307 137.806C251.301 137.807 251.296 137.807 251.291 137.808C250.58 137.932 249.197 137.879 248.437 138.524C247.514 139.303 245.133 139.547 244.404 138.962C243.674 138.376 244.647 137.353 245.667 135.842C246.687 134.332 248.728 134.77 249.358 134.868C249.735 134.924 250.059 134.585 250.258 134.302C250.262 134.297 250.266 134.292 250.27 134.286C250.308 134.23 250.344 134.178 250.371 134.131C251.239 131.583 253.197 127.934 255.22 123.604C255.624 122.738 255.566 121.724 255.06 120.912C253.708 118.748 250.965 114.249 249.201 110.639C248.995 109.595 248.789 108.613 248.63 107.871C252.507 107.245 254.111 104.879 254.631 103.871C256.466 107.438 262.118 118.923 261.199 123.16Z" fill="#874E05"/>
<path d="M319.367 141.689C318.068 141.991 312.193 142.062 308.069 141.132C307.209 140.939 306.424 140.702 305.773 140.414C304.996 140.071 304.411 139.656 304.112 139.155C303.646 138.375 302.792 135.709 301.79 132.211C299.028 122.578 295.14 106.66 295.14 106.66C295.14 106.66 302.945 108.258 304.597 109.622C306.25 110.986 307.707 132.624 309.26 133.209C309.489 133.295 309.884 133.477 310.39 133.726C310.415 133.739 310.439 133.752 310.465 133.763C310.767 133.911 311.106 134.084 311.473 134.274C314.696 135.936 320.028 138.928 320.581 139.593C321.31 140.472 321.262 141.251 319.367 141.689Z" fill="#87CDD9"/>
<path d="M304.392 118.981C304.392 118.612 304.356 118.244 304.29 117.874C303.285 112.335 295.3 106.663 295.143 106.663L295.141 106.778C295.141 107.624 293.811 109.188 291.761 109.322C289.331 109.481 286.33 108.091 286.33 106.685C286.315 106.685 284.964 106.869 284.506 106.92C282.557 107.142 278.668 108.198 277.003 109.461C275.419 110.661 277.657 118.231 279.044 123.591C279.631 125.859 280.064 127.73 279.992 128.558C279.957 128.963 279.594 134.465 279.271 139.441C279.002 143.548 278.76 147.295 278.754 147.529C278.736 147.995 281.048 149.628 284.929 150.862C285.867 151.161 286.896 151.435 288.007 151.663C290 152.074 292.253 152.338 294.705 152.33C295.506 152.328 296.266 152.286 296.983 152.215C302.525 151.669 304.424 145.331 304.392 118.981Z" fill="#87CDD9"/>
<path d="M286.331 106.618C286.284 104.467 286.319 101.897 286.609 99.7272L295.169 101.131C295.169 101.131 295.179 103.753 295.141 106.661C295.147 106.661 295.374 109.358 292.062 109.753C288.75 110.148 286.242 108.702 286.331 106.618Z" fill="#874E05"/>
<path d="M293.493 220.332C292.417 219.667 293.05 214.742 293.05 214.742C293.05 214.742 298.091 210.727 298.771 213.818C299.451 216.909 303.53 218.311 305.853 218.698C307.457 218.965 308.049 219.798 308.201 220.326L293.493 220.332Z" fill="#1B5B62"/>
<path d="M285.65 135.647C285.65 143.882 281.672 141.664 279.269 139.44C279.592 134.463 279.819 116.836 279.819 116.836C279.819 116.836 285.65 123.853 285.65 135.647Z" fill="#35BCCB"/>
<path d="M311.475 134.276C311.316 135.431 309.497 138.793 308.07 141.132C307.21 140.939 306.425 140.702 305.775 140.414C304.997 140.071 304.412 139.656 304.113 139.155C303.647 138.375 302.794 135.709 301.791 132.211C302.533 127.907 303.239 123.658 303.239 123.658L303.458 120.807C303.458 121.026 306.786 133.551 308.292 133.843C309.2 134.02 309.844 133.806 310.393 133.726C310.418 133.739 310.442 133.752 310.468 133.763C310.768 133.914 311.107 134.087 311.475 134.276Z" fill="#35BCCB"/>
<path d="M278.043 220.332C276.967 219.667 277.6 214.742 277.6 214.742C277.6 214.742 282.641 210.727 283.321 213.818C284.001 216.909 288.079 218.311 290.403 218.698C292.007 218.965 292.589 219.798 292.742 220.326L278.043 220.332Z" fill="#1B5B62"/>
<path d="M285.515 97.2515C285.515 97.2515 279.801 88.2128 290.774 87.6139C290.774 87.6139 294.89 88.1002 295.823 87.1652C295.823 87.1652 299.016 92.0321 296.034 97.2515C293.051 102.469 285.515 97.2515 285.515 97.2515Z" fill="black"/>
<path d="M294.916 101.968C294.084 102.625 291.645 103.277 290.94 103.354C290.94 103.354 287.324 102.545 286.665 102.147C285.648 101.528 285.713 100.274 285.661 98.5322C285.598 96.4705 285.391 94.8508 285.621 93.6612C285.893 92.2385 286.792 91.4293 289.309 91.2096C293.929 90.8077 295.855 91.9679 295.935 93.5219C295.956 93.9385 295.975 94.3364 295.988 94.7142C296.173 99.5597 295.792 101.277 294.916 101.968Z" fill="#874E05"/>
<path d="M296.03 96.3016C295.985 99.1082 295.23 100.771 294.683 100.98C294.054 101.221 293.313 101.422 292.54 101.554C292.279 101.585 292.03 101.576 292.034 101.429C292.042 100.986 292.632 100.44 292.194 100.047C291.735 99.6361 289.267 99.4981 289.068 100.394C288.97 100.832 289.766 101.604 289.221 101.621C289.056 101.593 288.893 101.561 288.738 101.521C287.839 101.287 287.134 100.859 286.837 100.68C285.82 100.061 285.887 99.1109 285.661 97.3827C285.515 96.2641 285.515 96.871 285.661 98.5295C285.813 100.266 285.515 101.38 286.665 102.144C287.305 102.569 290.993 104.231 290.993 104.231C290.94 103.351 294.084 102.622 294.916 101.966C295.689 101.36 296.076 99.9509 296.03 96.3016Z" fill="black"/>
<path d="M278.754 147.528C278.736 147.994 281.048 149.627 284.929 150.861C285.242 150.961 285.566 151.056 285.899 151.15C285.903 151.151 285.907 151.155 285.907 151.16C286.269 155.421 287.249 161.44 288.133 167.25C288.133 167.25 288.133 167.25 288.133 167.252C288.361 168.757 288.583 170.248 288.787 171.691C289.327 175.511 289.73 178.99 289.774 181.493V181.52C289.793 182.67 288.827 185.537 288.754 186.198C288.708 186.603 288.672 187.032 288.646 187.48C288.54 189.274 288.583 191.395 288.727 193.658C289.362 203.535 291.963 216.173 292.891 216.711C294.737 217.781 298.094 216.709 299.801 216.459C300.507 216.353 301.074 215.75 301.036 215.035C300.203 198.642 302.598 175.813 304.387 161.779C304.434 161.413 304.481 161.056 304.526 160.703C304.74 159.049 304.881 157.503 304.971 156.11C305.052 154.888 305.092 153.777 305.11 152.815C305.114 152.515 305.116 152.229 305.119 151.958C305.123 151.079 304.427 145.328 304.395 118.978C304.395 118.37 303.897 117.872 303.291 117.872H287.227C285.676 117.872 284.426 119.146 284.446 120.702C284.471 122.712 284.399 125.518 283.963 128.198C283.371 131.856 282.1 135.274 279.48 136.098C279.478 136.099 279.475 136.1 279.474 136.103C279.462 136.13 279.391 136.289 279.275 136.556C279.275 136.557 279.273 136.559 279.273 136.56C279.248 137.222 279.221 137.894 279.19 138.581C279.185 138.719 279.178 138.857 279.172 138.997C279.169 139.078 279.165 139.159 279.16 139.241C279.154 139.38 279.146 139.519 279.14 139.66C279.129 139.89 279.118 140.123 279.105 140.359C279.094 140.544 279.085 140.728 279.074 140.914C279.056 141.27 279.033 141.632 279.01 141.996C279.005 142.113 278.997 142.229 278.989 142.347C278.958 142.817 278.926 143.296 278.89 143.777C278.879 143.924 278.869 144.071 278.857 144.221C278.853 144.294 278.846 144.365 278.841 144.436C278.826 144.625 278.811 144.814 278.795 145.002C278.779 145.203 278.762 145.404 278.744 145.608C278.678 146.349 278.772 147.009 278.754 147.528Z" fill="#207C8B"/>
<path d="M288.727 193.659C289.361 203.536 291.963 216.175 292.891 216.712C294.737 217.782 298.094 216.71 299.801 216.46C300.507 216.354 301.074 215.751 301.036 215.036C300.203 198.644 302.597 175.815 304.387 161.78C304.434 161.415 304.481 161.057 304.526 160.705C304.74 159.05 304.881 157.504 304.971 156.111C304.12 150.546 299.316 150.248 294.96 161.759C295.498 165.578 288.583 191.396 288.727 193.659Z" fill="#1B5B62"/>
<path d="M278.573 181.03C278.441 182.171 277.11 184.887 276.949 185.534C274.747 194.418 275.964 215.485 277.055 216.327C278.744 217.631 282.214 217.012 283.938 216.988C284.653 216.977 285.292 216.452 285.35 215.739C286.704 198.955 292.316 175.9 295.924 162.338C297.742 155.507 297.998 150.483 297.998 150.483C297.998 150.483 281.132 140.118 279.308 145.779C277.695 150.792 279.59 172.263 278.573 181.03Z" fill="#207C8B"/>
<path d="M295.75 85.0873C295.634 84.956 295.511 84.8288 295.38 84.7055C294.83 84.1817 294.168 83.7289 293.371 83.3953C290.43 82.1642 287.991 83.3002 286.467 84.463C286.318 84.5769 286.176 84.6921 286.044 84.8047C285.216 85.5107 284.753 86.1416 284.753 86.1416C284.753 86.1416 283.324 88.0962 283.372 92.2157L298.082 92.3737C298.085 92.3737 298.3 87.9247 295.75 85.0873Z" fill="#FFA412"/>
<path d="M287.501 92.2586L288.309 92.268C288.326 92.0335 288.286 86.6775 286.295 84.5984C286.146 84.7123 286.176 84.6922 286.045 84.806C287.936 86.636 287.505 92.2036 287.501 92.2586Z" fill="#903A00"/>
<path d="M293.894 92.3296C294.062 89.0501 295.314 85.6045 295.652 84.9923C295.535 84.857 295.51 84.8328 295.381 84.7056C295.147 85.1101 293.228 88.679 293.025 92.3202L283.373 92.2171C283.373 92.2171 288.264 93.3169 291.215 93.3544C294.167 93.3906 298.085 92.3751 298.085 92.3751L293.894 92.3296Z" fill="#E27F2B"/>
<path d="M283.927 106.998C283.927 106.998 288.898 112.806 289.189 117.874L286.657 118.01C286.657 118.01 286.019 112.364 282.278 107.346C282.278 107.346 282.863 107.204 283.058 107.165C283.32 107.111 283.927 106.998 283.927 106.998Z" fill="#207C8B"/>
<path d="M296.321 106.917C299.881 112.323 300.263 117.983 300.263 117.983L302.819 117.939C302.609 113.954 300.113 109.572 298.737 107.496C298.737 107.497 296.967 107.048 296.321 106.917Z" fill="#207C8B"/>
<path d="M290.769 162.66H288.716C287.763 162.226 282.623 159.993 277.683 159.965C274.118 159.945 270.057 162.616 269.813 162.646C269.193 162.719 271.877 162.744 271.877 162.744C271.877 162.744 275.9 160.958 277.707 160.916C279.429 160.876 283.254 162.133 284.782 162.66H273.278C272.317 162.66 271.529 163.45 271.529 164.415V177.574C271.529 178.538 272.315 179.329 273.278 179.329H290.768C291.729 179.329 292.517 178.539 292.517 177.574V164.415C292.519 163.45 291.732 162.66 290.769 162.66Z" fill="#FFA412"/>
<path d="M285.085 162.661H267.596C266.634 162.661 265.846 163.45 265.846 164.415V177.574C265.846 178.538 266.633 179.329 267.596 179.329H285.085C286.047 179.329 286.835 178.54 286.835 177.574V164.415C286.835 163.45 286.048 162.661 285.085 162.661Z" fill="#E27F2B"/>
<path d="M279.949 138.178C280.074 144.126 279.336 155.969 279.336 155.969H275.838C274.186 147.635 273.604 142.273 273.604 139.35C273.604 138.774 273.607 138.237 273.612 137.743C273.633 135.246 273.701 133.795 273.701 133.795C273.046 118.665 276.059 110.573 277.004 109.46C277.951 108.345 282.281 107.344 282.281 107.344C282.281 107.344 283.711 111.524 284.293 114.887C284.877 118.249 279.709 132.379 279.921 137.207C279.932 137.508 279.942 137.834 279.949 138.178Z" fill="#87CDD9"/>
<path d="M325.349 142.227H322.52C322.24 142.227 322.01 142.458 322.01 142.741V220.013C322.01 220.295 322.24 220.526 322.52 220.526H325.349C325.631 220.526 325.859 220.295 325.859 220.013V142.741C325.859 142.458 325.631 142.227 325.349 142.227Z" fill="#F1A34F"/>
<path d="M325.349 142.227H322.52C322.24 142.227 322.01 142.458 322.01 142.741V145.135H325.859V142.741C325.859 142.458 325.631 142.227 325.349 142.227Z" fill="#207C8B"/>
<path d="M322.01 220.013C322.01 220.295 322.24 220.526 322.52 220.526H325.349C325.631 220.526 325.859 220.295 325.859 220.013V217.947H322.01V220.013Z" fill="#207C8B"/>
<path d="M323.959 147.291C323.798 147.291 323.667 147.422 323.667 147.583V215.599C323.667 215.759 323.798 215.891 323.959 215.891C324.119 215.891 324.25 215.759 324.25 215.599V147.583C324.25 147.422 324.119 147.291 323.959 147.291Z" fill="#E27F2B"/>
<path d="M279.336 155.97C279.336 155.97 280.074 144.126 279.949 138.18C277.152 137.275 274.895 137.474 273.611 137.744C273.607 138.24 273.603 138.777 273.603 139.352C273.603 142.276 274.186 147.638 275.837 155.97C275.108 159.041 275.157 162.355 276.421 162.939C277.684 163.523 281.861 161.332 281.813 160.356C281.765 159.381 279.336 155.97 279.336 155.97Z" fill="#874E05"/>
<path d="M327.196 142.275C326.855 141.021 326.602 140.326 325.742 139.716C324.49 138.831 323.006 139.07 321.899 139.266C321.054 139.415 320.167 139.131 319.796 138.987C317.837 137.677 312.917 134.975 310.466 133.764C308.794 134.737 306.742 136.66 305.775 140.414C309.545 142.082 317.797 142.052 319.369 141.689C319.369 141.689 320.823 142.75 321.93 142.847C322.349 142.884 322.877 142.761 323.371 142.595C324.148 142.334 324.983 142.594 325.543 143.288C326.081 143.955 326.782 144.32 327.074 144.32C327.523 144.322 327.41 143.065 327.196 142.275Z" fill="#874E05"/>
<path d="M30.2461 157.496H12.7566C11.795 157.496 11.0071 158.285 11.0071 159.251V172.409C11.0071 173.374 11.7937 174.164 12.7566 174.164H30.2461C31.2077 174.164 31.9956 173.375 31.9956 172.409V159.251C31.9956 158.285 31.2077 157.496 30.2461 157.496Z" fill="#FFA412"/>
<path d="M35.93 157.496H18.4404C17.4789 157.496 16.6909 158.285 16.6909 159.251V172.409C16.6909 173.374 17.4775 174.164 18.4404 174.164H35.93C36.8915 174.164 37.6794 173.375 37.6794 172.409V159.251C37.6794 158.285 36.8915 157.496 35.93 157.496Z" fill="#E27F2B"/>
<path d="M14.6516 157.568C14.6516 157.568 18.805 154.498 19.4246 154.571C20.0443 154.645 21.0272 154.864 21.0272 154.864L17.3106 157.678L14.6516 157.568Z" fill="#FFA412"/>
<path d="M47.4365 109.07C45.7711 107.807 41.8822 106.751 39.9337 106.529C39.4756 106.478 38.1081 106.471 38.0934 106.471C38.0934 107.876 35.1099 109.09 32.6793 108.931C30.6307 108.797 29.2992 107.233 29.2992 106.387L29.2979 106.384C29.1403 106.384 21.1554 111.944 20.1511 117.483C20.0843 117.853 20.0483 118.221 20.0483 118.59C20.0162 144.939 18.4243 148.981 18.9278 148.972C18.9278 148.972 21.9153 151.277 27.4602 151.823C28.1774 151.894 28.9373 151.935 29.7386 151.938C32.1905 151.947 34.4435 151.682 36.4361 151.271C37.5472 151.043 38.5768 150.768 39.5144 150.469C43.3953 149.236 45.707 147.603 45.6897 147.136C45.671 146.618 45.7658 145.958 45.7017 145.218C45.4599 142.429 45.3277 139.991 45.2249 137.536C49.437 137.907 51.8663 137.49 51.8663 137.49C55.3132 130.046 49.6894 110.778 47.4365 109.07ZM46.4536 130.518C46.1971 130.586 45.918 130.652 45.6215 130.715C45.4159 130.76 45.2022 130.802 44.9805 130.843C44.9765 130.743 44.9738 130.64 44.9685 130.541C44.9111 129.161 44.847 127.847 44.7575 126.597C44.6814 125.55 44.5879 124.548 44.4663 123.592C45.918 127.437 46.9317 130.389 46.4536 130.518Z" fill="#9ED9F0"/>
<path d="M29.2992 106.387C29.2992 106.387 23.1293 107.324 20.473 109.544C17.8167 111.765 17.5483 125.904 16.6629 129.9C16.4893 130.685 16.3317 131.953 16.1981 133.496C15.7227 138.92 16.2929 146.442 16.763 149.224C16.8124 149.893 16.7871 150.878 16.4011 151.848C15.7213 153.553 15.5758 154.041 16.7897 155.016C18.0037 155.992 19.3165 157.355 20.2393 156.966C20.9511 156.664 20.8256 151.927 20.7294 149.777C21.7951 145.182 23.5206 136.557 25.1459 128.199C27.312 117.056 29.2992 106.387 29.2992 106.387Z" fill="#874E05"/>
<path d="M29.2993 106.388C29.2993 106.388 28.1534 112.536 26.6537 120.373C26.1782 122.859 25.6667 125.516 25.1459 128.2C23.0225 132.375 21.2009 135.212 20.6373 134.679C19.4888 133.591 17.4735 133.457 16.1981 133.497C16.3317 131.954 16.4893 130.687 16.6629 129.902C16.7323 129.586 16.7991 129.208 16.8632 128.776C17.6071 123.747 18.0277 111.59 20.473 109.547C21.7604 108.472 23.8705 107.697 25.7055 107.182H25.7068C26.6443 106.921 27.5097 106.728 28.1574 106.596C28.8559 106.455 29.2993 106.388 29.2993 106.388Z" fill="#9ED9F0"/>
<path d="M20.6373 134.678C19.4888 133.59 17.4735 133.456 16.1968 133.496C16.3317 131.953 16.4879 130.685 16.6615 129.9C16.731 129.584 16.7977 129.205 16.8619 128.774L23.2268 113.359C23.2281 113.361 21.1995 135.212 20.6373 134.678Z" fill="#74ACBE"/>
<path d="M38.1095 106.23C38.1562 104.078 38.1215 101.509 37.8317 99.3386L29.2699 100.743C29.2699 100.743 29.2699 103.363 29.3073 106.271C29.3019 106.273 29.2993 106.273 29.2993 106.273C29.2993 106.273 29.0656 108.971 32.3776 109.365C35.6896 109.76 38.1976 108.312 38.1095 106.23Z" fill="#874E05"/>
<path d="M30.9446 220.325C32.021 219.66 31.3907 214.701 31.3907 214.701C31.3907 214.701 26.3492 210.686 25.6694 213.776C24.9897 216.867 20.9111 218.27 18.5873 218.657C16.9834 218.923 16.4893 219.817 16.3384 220.345L30.9446 220.325Z" fill="#1B5B62"/>
<path d="M45.6229 130.723C45.6229 130.723 44.0203 132.897 43.6918 132.897C43.3632 132.897 39.3194 131.326 40.4799 127.81C41.6404 124.295 44.4663 123.592 44.4663 123.592C44.5892 124.548 44.6827 125.549 44.7575 126.597C44.8483 127.847 44.9124 129.161 44.9685 130.541C44.9725 130.64 44.9752 130.743 44.9805 130.843C45.2022 130.802 45.4159 130.76 45.6215 130.715L45.6229 130.723Z" fill="#74ACBE"/>
<path d="M46.3935 220.325C47.4699 219.66 46.8395 214.701 46.8395 214.701C46.8395 214.701 41.798 210.686 41.1183 213.776C40.4385 216.867 36.3599 218.27 34.0362 218.657C32.4323 218.923 31.9381 219.817 31.7872 220.345L46.3935 220.325Z" fill="#1B5B62"/>
<path d="M38.9241 96.8629C38.9241 96.8629 44.6386 87.8242 33.6649 87.2254C33.6649 87.2254 29.5489 87.7117 28.6168 86.7766C28.6168 86.7766 25.4236 91.6436 28.4058 96.8629C31.3879 102.081 38.9241 96.8629 38.9241 96.8629Z" fill="#640700"/>
<path d="M29.5236 101.58C30.3556 102.236 32.7942 102.889 33.4993 102.965C33.4993 102.965 37.1158 102.156 37.7742 101.758C38.7919 101.139 38.7264 99.8852 38.7785 98.1437C38.8413 96.0819 39.0483 94.4623 38.8186 93.2727C38.5461 91.8499 37.6474 91.0408 35.13 90.8211C30.5092 90.4192 28.5847 91.5793 28.5046 93.1333C28.4832 93.55 28.4645 93.9479 28.4512 94.3256C28.2669 99.1699 28.6488 100.889 29.5236 101.58Z" fill="#874E05"/>
<path d="M28.4098 95.9131C28.4538 98.7197 29.2097 100.382 29.7559 100.591C30.385 100.832 31.1262 101.033 31.8994 101.166C32.1598 101.197 32.4096 101.187 32.4056 101.04C32.3975 100.597 31.8073 100.051 32.2453 99.6588C32.7047 99.2475 35.1727 99.1095 35.3717 100.006C35.4692 100.444 34.6732 101.215 35.2181 101.233C35.3837 101.205 35.5453 101.173 35.7015 101.132C36.6003 100.898 37.3055 100.471 37.6019 100.291C38.6196 99.6722 38.5528 98.7224 38.7785 96.9942C38.9241 95.8756 38.9241 96.4824 38.7785 98.1409C38.6263 99.8771 38.9241 100.992 37.7742 101.755C37.1345 102.18 33.4459 103.843 33.4459 103.843C33.4993 102.962 30.3556 102.234 29.5236 101.577C28.7517 100.97 28.363 99.5623 28.4098 95.9131Z" fill="#640700"/>
<path d="M45.687 147.139C45.7044 147.605 43.3926 149.238 39.5117 150.472C39.1992 150.573 38.8747 150.668 38.5421 150.762C38.5381 150.763 38.5341 150.767 38.5341 150.771C38.1722 155.032 37.192 161.052 36.3079 166.862C36.3079 166.862 36.3079 166.862 36.3079 166.863C36.0795 168.369 35.8578 169.86 35.6535 171.303C35.1139 175.122 34.7106 178.601 34.6665 181.105V181.132C34.6479 182.281 35.6134 185.148 35.6869 185.81C35.7323 186.214 35.7683 186.643 35.795 187.092C35.9005 188.886 35.8578 191.005 35.7136 193.269C35.0792 203.146 32.4777 215.785 31.5495 216.322C29.7039 217.392 26.3465 216.321 24.6397 216.07C23.9332 215.964 23.367 215.361 23.4044 214.646C24.2377 198.254 21.8432 175.425 20.0536 161.39C20.0069 161.025 19.9602 160.667 19.9148 160.315C19.7011 158.66 19.5595 157.114 19.47 155.721C19.3886 154.499 19.3485 153.389 19.3311 152.427C19.3271 152.127 19.3245 151.84 19.3218 151.569C19.3178 150.691 20.0136 144.939 20.0456 118.59C20.0456 117.981 20.5438 117.483 21.1501 117.483H37.2133C38.7652 117.483 40.0152 118.757 39.9951 120.314C39.9698 122.323 40.0419 125.13 40.4773 127.809C41.0702 131.468 42.3403 134.885 44.9605 135.708C44.9632 135.709 44.9658 135.71 44.9672 135.713C44.9792 135.74 45.0513 135.899 45.1662 136.166C45.1662 136.167 45.1675 136.169 45.1675 136.17C45.1929 136.832 45.2196 137.504 45.2503 138.192C45.2556 138.33 45.2623 138.467 45.269 138.607C45.2717 138.689 45.2757 138.769 45.281 138.851C45.2863 138.99 45.2944 139.129 45.301 139.27C45.3117 139.5 45.3224 139.733 45.3358 139.969C45.3464 140.154 45.3558 140.338 45.3665 140.524C45.3852 140.88 45.4079 141.242 45.4306 141.606C45.4359 141.723 45.4439 141.839 45.4519 141.957C45.4827 142.428 45.5147 142.906 45.5508 143.387C45.5615 143.534 45.5721 143.683 45.5842 143.832C45.5882 143.903 45.5948 143.975 45.6002 144.046C45.6149 144.235 45.6296 144.424 45.6456 144.613C45.6616 144.813 45.679 145.014 45.6963 145.218C45.7618 145.96 45.667 146.619 45.687 147.139Z" fill="#207C8B"/>
<path d="M35.7136 193.27C35.0793 203.148 32.4777 215.786 31.5496 216.323C29.7039 217.394 26.3465 216.322 24.6398 216.071C23.9333 215.966 23.367 215.363 23.4044 214.647C24.2378 198.255 21.8433 175.426 20.0537 161.392C20.007 161.026 19.9602 160.668 19.9148 160.316C19.7011 158.661 19.5596 157.116 19.4701 155.722C20.3208 150.157 25.1245 149.86 29.4809 161.37C31.3479 165.829 35.8579 191.006 35.7136 193.27Z" fill="#1B5B62"/>
<path d="M45.866 180.641C45.9982 181.783 47.3296 184.498 47.4899 185.145C49.6921 194.03 48.4755 215.096 47.3844 215.939C45.695 217.242 42.2254 216.623 40.5013 216.599C39.7868 216.588 39.1471 216.063 39.0897 215.351C37.7355 198.566 32.1238 175.512 28.5153 161.949C26.6977 155.118 26.4413 150.094 26.4413 150.094C26.4413 150.094 43.3072 139.728 45.1314 145.391C46.7447 150.404 44.8496 171.873 45.866 180.641Z" fill="#207C8B"/>
<path d="M39.6854 85.7531C39.6854 85.7531 39.2233 85.1234 38.394 84.4161C38.2631 84.3022 38.1215 84.187 37.9706 84.0745C36.4468 82.9117 34.0082 81.7756 31.0675 83.0068C30.2702 83.3404 29.6078 83.7932 29.0576 84.317C28.9267 84.4402 28.8038 84.5675 28.6876 84.6988C26.1382 87.5362 26.3545 91.9865 26.3545 91.9865L41.0663 91.8285C41.1143 87.7077 39.6854 85.7531 39.6854 85.7531Z" fill="#FFA412"/>
<path d="M36.9383 91.87C36.9343 91.8151 36.5043 86.2475 38.394 84.4161C38.2631 84.3023 38.2938 84.3224 38.1442 84.2085C36.153 86.2877 36.113 91.6436 36.1303 91.8781L36.9383 91.87Z" fill="#E27F2B"/>
<path d="M31.4253 91.9303C31.2865 88.3159 29.2979 84.7176 29.0589 84.3157C28.928 84.4389 28.9039 84.463 28.7878 84.5943C29.1323 85.2039 30.4317 88.6883 30.5559 91.9397L26.3558 91.9852C26.3558 91.9852 30.2742 93.0007 33.2256 92.9645C36.177 92.9284 41.0676 91.8272 41.0676 91.8272L31.4253 91.9303Z" fill="#E27F2B"/>
<path d="M40.5121 106.608C40.5121 106.608 35.5414 112.416 35.2502 117.484H37.777C37.777 117.484 38.4207 111.974 42.1614 106.955L40.5121 106.608Z" fill="#207C8B"/>
<path d="M28.156 106.596C24.5956 112 24.1723 117.484 24.1723 117.484H21.6469C21.8565 113.5 24.3272 109.257 25.7041 107.181H25.7054C26.6429 106.92 27.5083 106.727 28.156 106.596Z" fill="#207C8B"/>
<path d="M53.8162 137.991C53.7213 136.06 53.4582 133.764 52.9561 131.034C52.9548 132.349 52.8693 133.594 52.677 134.719C53.302 139.716 53.0603 143.535 51.9505 145.698C51.2627 147.039 50.3105 148.067 49.158 148.756C49.7456 148.183 50.2638 147.499 50.7018 146.712C51.5552 145.178 52.3404 142.323 52.0493 137.057C51.9905 137.207 51.9291 137.352 51.8637 137.492C51.8637 137.492 51.6473 137.53 51.2306 137.573C51.4016 141.423 50.9916 144.371 50.0114 146.136C49.2688 147.473 48.2605 148.471 47.0573 149.106C47.4365 148.729 47.7851 148.306 48.1083 147.833C49.1206 146.341 50.177 143.407 50.2224 137.649C49.97 137.664 49.6895 137.676 49.3823 137.684C49.3356 142.098 48.6865 145.383 47.4646 147.178C47.4085 147.261 47.3497 147.344 47.2896 147.424C48.2165 145.829 49.1032 142.937 49.1486 137.688C48.8855 137.692 48.6051 137.694 48.3073 137.692C48.2632 142.102 47.6115 145.384 46.3908 147.178C45.6256 148.302 44.6667 149.126 43.565 149.634C43.2284 149.576 42.8839 149.5 42.538 149.407C42.4912 149.396 42.4445 149.384 42.3991 149.37C42.3937 149.368 42.3897 149.367 42.3844 149.366C42.339 149.354 42.2922 149.34 42.2468 149.327C41.8248 149.204 41.4148 149.063 41.0182 148.905C36.1583 146.969 33.3698 142.61 33.0987 139.026C32.9064 136.481 33.1121 132.691 33.6249 128.569C34.6345 120.445 36.8341 111.027 39.5091 107.284C39.5545 107.221 39.5972 107.16 39.6426 107.101C39.6426 107.101 39.6426 107.099 39.644 107.099C39.7001 107.026 39.7561 106.953 39.8136 106.886C39.9124 106.767 40.0099 106.656 40.11 106.554C40.1114 106.553 40.1114 106.553 40.1127 106.551C40.3224 106.336 40.5321 106.166 40.7364 106.04C40.7925 106.073 40.8539 106.115 40.9207 106.168C41.0943 106.301 41.3013 106.503 41.5404 106.809C41.5417 106.811 41.5444 106.813 41.5457 106.815C41.8248 106.876 42.1146 106.945 42.4111 107.02C42.5486 107.058 42.6902 107.094 42.8318 107.135C42.8411 107.137 42.8491 107.138 42.8585 107.142C42.8919 107.149 42.9253 107.16 42.9573 107.169C43.1309 107.217 43.3045 107.268 43.4795 107.32C43.5783 107.351 43.6785 107.382 43.7773 107.413C43.8948 107.45 44.011 107.488 44.1272 107.527C44.2541 107.57 44.3809 107.612 44.5065 107.657C44.64 107.703 44.7736 107.752 44.9044 107.801C44.9018 107.797 44.8991 107.793 44.8964 107.789C43.3219 105.3 42.2028 104.72 41.4763 104.755C41.3627 104.76 41.2506 104.775 41.1357 104.8C41.0035 104.766 40.882 104.751 40.7711 104.751C40.5281 104.752 40.2837 104.798 40.0393 104.886C39.2914 104.959 38.5048 105.433 37.6901 106.305C37.6341 106.362 37.5793 106.424 37.5232 106.487C37.0705 106.999 36.6177 107.622 36.1664 108.336C36.1637 108.34 36.161 108.344 36.1583 108.348C31.8514 115.176 27.8356 130.345 27.5965 137.445C27.4082 143.064 31.7205 148.088 36.0782 150.145C36.5042 150.346 36.9276 150.52 37.3456 150.666C37.582 150.749 37.8157 150.823 38.0481 150.889C38.0534 150.89 38.0574 150.891 38.0627 150.893C38.9655 151.147 39.843 151.273 40.6843 151.273C40.8646 151.273 41.0422 151.268 41.2185 151.256C41.4001 151.268 41.5804 151.273 41.7594 151.273C42.5513 151.273 43.3125 151.162 44.031 150.941C44.1446 150.936 44.2581 150.928 44.3703 150.92C44.4664 150.91 44.5626 150.902 44.656 150.89C44.8403 150.869 45.0233 150.841 45.2036 150.807C45.7311 150.81 46.2453 150.771 46.7421 150.688C48.3073 150.431 49.6962 149.755 50.8327 148.694C51.5485 148.027 52.1642 147.207 52.6596 146.243C53.3861 144.823 54.0298 142.328 53.8162 137.991ZM28.4339 137.487C28.6449 131.202 32.0704 117.855 35.8579 110.649C35.7256 110.968 35.5921 111.298 35.4612 111.637C31.8821 119.241 28.8759 131.334 28.6716 137.445C28.5848 140.001 29.4302 142.433 30.7883 144.519C29.1524 142.216 28.3604 139.64 28.4339 137.487ZM37.4524 149.19C32.0624 146.645 29.3754 141.376 29.5076 137.487C29.6225 134.035 30.7095 128.448 32.2934 122.921C31.0581 128.896 30.369 134.956 30.5386 138.679C30.7523 143.393 34.091 147.313 37.8197 149.355C37.6968 149.304 37.5766 149.249 37.4524 149.19ZM31.372 138.623C31.1262 133.232 32.825 122.378 35.337 114.592C35.6188 113.721 35.9099 112.888 36.2104 112.104C36.3226 111.866 36.4348 111.634 36.547 111.405C34.6132 116.718 33.1602 124.311 32.5298 130.688C32.2066 133.985 32.1038 136.956 32.2667 139.121C32.5605 143.012 34.9778 146.262 37.9479 148.329C33.8065 146.033 31.5229 141.947 31.372 138.623Z" fill="#FFA412"/>
<path d="M45.6229 130.723C45.4853 130.743 42.9039 131.216 42.7623 131.237C38.4607 131.87 32.6727 132.148 32.0704 132.176C32.0143 132.124 29.9603 130.206 29.1603 130.206C28.3484 130.206 26.0086 131.06 25.7695 131.72C25.5305 132.377 25.4357 133.562 26.1034 133.824C26.7725 134.087 29.5423 134.746 30.2581 134.811C30.3556 134.821 30.4745 134.821 30.6027 134.809C35.7483 136.325 40.1768 137.071 43.589 137.422C43.8934 137.455 45.6536 137.684 47.2175 137.668C47.1614 134.687 46.1611 131.934 45.6229 130.723Z" fill="#874E05"/>
<path d="M139.598 69.2244V68.091H137.125V60.609H135.078V68.091H129.892V60.609H127.845V68.091H122.208V60.609H120.16V68.091H114.975V60.609H112.927V68.091H110.215V69.2244H112.927V72.8669H110.215V74.0003H112.927V77.6428H110.215V78.7762H112.927V82.4187H110.215V83.5521H112.927V87.1946H110.215V88.328H112.927V91.9705H110.215V93.1065H112.927V96.0538H110.215V97.1871H112.927V100.83H110.215V101.963H112.927V105.606H110.215V106.739H112.927V110.381H110.215V111.515H112.927V115.157H110.215V116.291H112.927V119.933H110.215V121.067H112.927V124.543H110.215V125.676H112.927V129.319H110.215V130.452H112.927V134.095H110.215V135.228H112.927V138.871H110.215V140.004H112.927V143.647H110.215V144.78H112.927V148.423H110.215V149.556H112.927V152.503H110.215V153.636H112.927V157.279H110.215V158.412H112.927V162.055H110.215V163.188H112.927V166.831H110.215V167.964H112.927V171.607H110.215V172.74H112.927V176.383H110.215V177.516H112.927V180.766H110.215V181.899H112.927V185.542H110.215V186.675H112.927V190.318H110.215V191.451H112.927V195.094H110.215V196.227H112.927V199.87H110.215V201.003H112.927V204.645H110.215V205.779H112.927V208.726H110.215V209.859H112.927V213.502H110.215V214.635H112.927V218.278H110.215V219.411H139.598V218.278H137.125V214.635H139.598V213.502H137.125V209.859H139.598V208.726H137.125V205.779H139.598V204.645H137.125V201.003H139.598V199.87H137.125V196.227H139.598V195.094H137.125V191.451H139.598V190.318H137.125V186.675H139.598V185.542H137.125V181.899H139.598V180.766H137.125V177.516H139.598V176.383H137.125V172.74H139.598V171.607H137.125V167.964H139.598V166.831H137.125V163.188H139.598V162.055H137.125V158.412H139.598V157.279H137.125V153.636H139.598V152.503H137.125V149.556H139.598V148.423H137.125V144.78H139.598V143.647H137.125V140.004H139.598V138.871H137.125V135.228H139.598V134.095H137.125V130.456H139.598V129.323H137.125V125.68H139.598V124.547H137.125V121.071H139.598V119.937H137.125V116.295H139.598V115.161H137.125V111.519H139.598V110.385H137.125V106.743H139.598V105.61H137.125V101.967H139.598V100.834H137.125V97.1912H139.598V96.0538H137.125V93.1065H139.598V91.9732H137.125V88.3306H139.598V87.1973H137.125V83.5547H139.598V82.4214H137.125V78.7788H139.598V77.6455H137.125V74.003H139.598V72.8696H137.125V69.2271H139.598V69.2244ZM127.845 69.2244V72.8669H122.208V69.2244H127.845ZM122.208 213.515V209.873H127.845V213.515H122.208ZM127.845 214.649V218.291H122.208V214.649H127.845ZM122.208 208.738V205.791H127.845V208.738H122.208ZM122.208 204.658V201.015H127.845V204.658H122.208ZM122.208 199.882V196.239H127.845V199.882H122.208ZM122.208 195.104V191.462H127.845V195.104H122.208ZM122.208 190.328V186.686H127.845V190.328H122.208ZM122.208 185.551V181.909H127.845V185.551H122.208ZM122.208 180.775V177.525H127.845V180.775H122.208ZM122.208 176.392V172.749H127.845V176.392H122.208ZM122.208 171.615V167.972H127.845V171.615H122.208ZM122.208 166.839V163.196H127.845V166.839H122.208ZM122.208 162.063V158.42H127.845V162.063H122.208ZM122.208 157.286V153.643H127.845V157.286H122.208ZM122.208 152.51V149.563H127.845V152.51H122.208ZM122.208 148.428V144.785H127.845V148.428H122.208ZM122.208 143.652V140.009H127.845V143.652H122.208ZM122.208 138.876V135.234H127.845V138.876H122.208ZM122.208 134.099V130.456H127.845V134.099H122.208ZM122.208 129.323V125.68H127.845V129.323H122.208ZM122.208 124.546V121.069H127.845V124.546H122.208ZM122.208 119.936V116.293H127.845V119.936H122.208ZM122.208 115.16V111.517H127.845V115.16H122.208ZM122.208 110.383V106.74H127.845V110.383H122.208ZM122.208 105.607V101.964H127.845V105.607H122.208ZM122.208 100.83V97.1871H127.845V100.83H122.208ZM122.208 96.0538V93.1065H127.845V96.0538H122.208ZM122.208 91.9732V88.3306H127.845V91.9732H122.208ZM122.208 87.1959V83.5534H127.845V87.1959H122.208ZM122.208 82.42V78.7775H127.845V82.42H122.208ZM122.208 77.6428V74.0003H127.845V77.6428H122.208ZM114.975 69.2244H120.16V72.8669H114.975V69.2244ZM114.975 74.0003H120.16V77.6428H114.975V74.0003ZM114.975 78.7775H120.16V82.42H114.975V78.7775ZM114.975 83.5534H120.16V87.1959H114.975V83.5534ZM114.975 88.3293H120.16V91.9718H114.975V88.3293ZM114.975 93.1065H120.16V96.0538H114.975V93.1065ZM114.975 97.1871H120.16V100.83H114.975V97.1871ZM114.975 101.964H120.16V105.607H114.975V101.964ZM114.975 106.74H120.16V110.383H114.975V106.74ZM114.975 111.516H120.16V115.159H114.975V111.516ZM114.975 116.293H120.16V119.936H114.975V116.293ZM114.975 121.069H120.16V124.546H114.975V121.069ZM114.975 125.68H120.16V129.323H114.975V125.68ZM114.975 130.456H120.16V134.099H114.975V130.456ZM114.975 135.232H120.16V138.875H114.975V135.232ZM114.975 140.009H120.16V143.652H114.975V140.009ZM114.975 144.785H120.16V148.428H114.975V144.785ZM114.975 149.563H120.16V152.51H114.975V149.563ZM114.975 153.643H120.16V157.286H114.975V153.643ZM114.975 158.419H120.16V162.062H114.975V158.419ZM114.975 163.196H120.16V166.839H114.975V163.196ZM114.975 167.972H120.16V171.615H114.975V167.972ZM114.975 172.749H120.16V176.392H114.975V172.749ZM114.975 177.525H120.16V180.775H114.975V177.525ZM114.975 181.909H120.16V185.551H114.975V181.909ZM114.975 186.686H120.16V190.328H114.975V186.686ZM114.975 191.462H120.16V195.104H114.975V191.462ZM114.975 196.238H120.16V199.88H114.975V196.238ZM114.975 201.015H120.16V204.658H114.975V201.015ZM114.975 205.791H120.16V208.738H114.975V205.791ZM114.975 209.873H120.16V213.515H114.975V209.873ZM114.975 214.649H120.16V218.291H114.975V214.649ZM135.078 218.291H129.892V214.649H135.078V218.291ZM135.078 213.515H129.892V209.873H135.078V213.515ZM135.078 208.738H129.892V205.791H135.078V208.738ZM135.078 204.658H129.892V201.015H135.078V204.658ZM135.078 199.882H129.892V196.239H135.078V199.882ZM135.078 195.104H129.892V191.462H135.078V195.104ZM135.078 190.328H129.892V186.686H135.078V190.328ZM135.078 185.551H129.892V181.909H135.078V185.551ZM135.078 180.775H129.892V177.525H135.078V180.775ZM135.078 176.392H129.892V172.749H135.078V176.392ZM135.078 171.615H129.892V167.972H135.078V171.615ZM135.078 166.839H129.892V163.196H135.078V166.839ZM135.078 162.063H129.892V158.42H135.078V162.063ZM135.078 157.286H129.892V153.643H135.078V157.286ZM135.078 152.51H129.892V149.563H135.078V152.51ZM135.078 148.428H129.892V144.785H135.078V148.428ZM135.078 143.652H129.892V140.009H135.078V143.652ZM135.078 138.876H129.892V135.234H135.078V138.876ZM135.078 134.099H129.892V130.456H135.078V134.099ZM135.078 129.323H129.892V125.68H135.078V129.323ZM135.078 124.546H129.892V121.069H135.078V124.546ZM135.078 119.936H129.892V116.293H135.078V119.936ZM135.078 115.16H129.892V111.517H135.078V115.16ZM135.078 110.383H129.892V106.74H135.078V110.383ZM135.078 105.607H129.892V101.964H135.078V105.607ZM135.078 100.83H129.892V97.1871H135.078V100.83ZM135.078 96.0538H129.892V93.1065H135.078V96.0538ZM135.078 91.9732H129.892V88.3306H135.078V91.9732ZM135.078 87.1959H129.892V83.5534H135.078V87.1959ZM135.078 82.42H129.892V78.7775H135.078V82.42ZM135.078 77.6428H129.892V74.0003H135.078V77.6428ZM135.078 72.8669H129.892V69.2244H135.078V72.8669Z" fill="#D2E4FF"/>
<path d="M164.489 0H163.766V12.9358H164.489V0Z" fill="#D2E4FF"/>
<path d="M204.625 0H203.901V12.9358H204.625V0Z" fill="#D2E4FF"/>
<path d="M169.56 0H168.836V12.9358H169.56V0Z" fill="#D2E4FF"/>
<path d="M208.247 0H207.523V12.9358H208.247V0Z" fill="#D2E4FF"/>
<path d="M61.8985 190.67C61.6675 190.616 61.4351 190.764 61.383 190.994L57.4727 208.126C56.4164 208.157 55.3426 209.305 54.978 210.903L54.6054 212.535C54.5854 212.619 54.5627 212.722 54.5547 212.809L58.8977 213.807C58.9391 213.727 58.9631 213.625 58.9818 213.541L59.3544 211.909C59.7177 210.315 59.2529 208.817 58.3128 208.323L62.2244 191.189C62.2738 190.955 62.1282 190.722 61.8985 190.67Z" fill="#207C8B"/>
<path d="M50.5336 212.783C50.5336 212.783 59.5534 210.439 62.4328 212.347C65.3121 214.255 60.9664 216.271 60.9664 216.271L50.5336 212.783Z" fill="#E69D43"/>
<path d="M120.186 109.472C118.462 114.766 109.065 123.916 107.767 124.828C107.767 124.828 105.581 121.174 106.018 119.127C106.374 117.456 110.033 111.5 111.285 108.573C111.35 108.42 111.409 108.276 111.46 108.142C111.632 107.693 111.722 107.344 111.702 107.138C111.639 106.502 109.646 104.956 107.33 103.12C104.32 100.735 100.765 97.865 100.187 95.881C99.1666 92.3724 95.6329 78.4788 95.6329 78.4788C95.6329 78.4788 104.414 80.3838 106.892 82.5768C109.37 84.7698 120.01 103.045 120.446 107.724C120.494 108.233 120.398 108.823 120.186 109.472Z" fill="#FFA412"/>
<path d="M120.186 109.472C118.462 114.766 109.065 123.916 107.767 124.828C107.767 124.828 105.581 121.174 106.018 119.127C106.394 117.369 110.422 110.869 111.46 108.141C113.021 107.87 116.686 107.536 120.186 109.472Z" fill="#874E05"/>
<path d="M95.6357 77.2569L95.6303 78.3353C95.6303 78.3353 95.9228 81.7099 91.7814 82.2029C87.6388 82.6973 84.5204 81.1902 84.6326 78.5859C85.0052 76.5697 85.3965 74.883 85.4245 73.2138C85.4352 72.5935 85.3925 71.9358 85.2776 71.1936L93.3039 71.0328L95.6677 71.42L95.6357 77.2569Z" fill="#874E05"/>
<path d="M95.6663 71.4213L95.6356 77.2583C94.7836 77.6561 93.8207 77.8986 92.743 77.8986C89.0543 77.8986 86.6692 75.1858 85.4232 73.2152C85.4338 72.5949 85.3911 71.9371 85.2762 71.1949L93.3025 71.0342L95.6663 71.4213Z" fill="#793800"/>
<path d="M88.5615 220.334C88.5615 220.334 88.1716 217.29 87.2701 215.479C86.3673 213.669 80.6261 214.821 80.6261 214.821C80.6261 214.821 79.4775 215.809 79.2318 220.416L88.5615 220.334Z" fill="#1B5B62"/>
<path d="M108.122 220.325C106.774 219.498 107.542 213.337 107.542 213.337C107.542 213.337 113.828 208.292 114.692 212.154C115.556 216.016 120.664 217.751 123.571 218.224C125.579 218.551 126.2 219.666 126.392 220.325H108.122Z" fill="#1B5B62"/>
<path d="M95.1015 174.822C95.3579 176.237 95.5195 177.397 95.5622 178.229C96.1472 189.663 105.158 215.806 106.768 216.417C109.262 217.361 113.189 215.355 115.243 214.698C116.095 214.425 116.67 213.564 116.48 212.69C112.018 192.112 110.378 162.481 109.781 144.937C109.479 136.1 107.968 129.997 107.968 129.997C107.968 129.997 85.9921 124.114 85.8626 131.555C85.7464 138.138 93.1423 163.96 95.1015 174.822Z" fill="#207C8B"/>
<path d="M95.1015 174.822L109.782 144.935C109.481 136.099 107.969 129.995 107.969 129.995C107.969 129.995 85.9921 124.114 85.8626 131.555C85.7464 138.138 93.1423 163.96 95.1015 174.822Z" fill="#1B5B62"/>
<path d="M99.9907 131.58L88.3732 216.046C88.3732 216.046 83.2717 217.28 79.3026 216.292C79.3026 216.292 75.9011 171.37 76.1843 160.51C76.4674 149.65 73.743 131.45 76.8066 129.442C79.8702 127.435 99.9907 131.58 99.9907 131.58Z" fill="#207C8B"/>
<path d="M108.602 131.737C108.602 131.737 102.666 135.209 94.0664 135.112C90.7143 135.074 87.7976 134.822 85.323 134.453C78.4265 133.426 74.9462 131.495 74.9729 130.775C74.9956 130.125 75.041 127.97 75.1225 127.043C76.2189 114.364 75.6514 104.503 77.1271 97.0947C77.1444 97.0049 77.1618 96.9165 77.1805 96.8281C79.1316 87.4103 82.1912 81.9994 83.7097 79.7796C84.2653 78.9691 84.6138 78.5859 84.6312 78.5859C84.6312 80.3436 88.3625 81.8614 91.4034 81.6618C93.9662 81.4943 95.6289 79.5384 95.6289 78.4801L95.6316 78.4774C95.8413 78.4774 107.189 86.3895 107.2 93.7429C107.24 126.695 109.231 131.748 108.602 131.737Z" fill="#FFA412"/>
<path d="M85.339 134.344C85.3336 134.38 85.3283 134.416 85.323 134.452C78.4265 133.426 74.9462 131.494 74.9729 130.775C74.9956 130.125 75.041 127.97 75.1225 127.043C76.2189 114.364 75.6514 104.503 77.1271 97.0946C80.7476 101.948 88.1903 114.66 85.339 134.344Z" fill="#E27F2B"/>
<path d="M104.231 118.583L103.304 121.676L102.382 124.747L62.3753 112.675C62.3179 112.678 62.2631 112.672 62.211 112.656C62.1563 112.64 62.1042 112.613 62.0561 112.58C61.5513 112.222 61.4605 110.911 61.8478 109.432C61.8678 109.35 61.8918 109.268 61.9159 109.185C62.3833 107.596 63.2353 106.42 63.8884 106.411C63.9418 106.409 63.9939 106.416 64.0446 106.431C64.0967 106.447 64.1448 106.47 64.1916 106.502L104.231 118.583Z" fill="#E9F3FE"/>
<path d="M103.304 121.677L102.382 124.748L62.3753 112.676C62.3179 112.679 62.2631 112.674 62.211 112.658C62.1563 112.641 62.1042 112.615 62.0561 112.581C61.5513 112.223 61.4605 110.912 61.8478 109.433C63.4824 110.664 71.2937 116.11 84.6245 118.76C98.4054 121.497 102.67 121.668 103.304 121.677Z" fill="#BED4F4"/>
<path d="M104.307 118.565C103.638 118.367 102.686 119.601 102.179 121.32C101.673 123.039 101.806 124.594 102.475 124.792C103.144 124.99 104.096 123.757 104.602 122.038C105.108 120.318 104.976 118.764 104.307 118.565Z" fill="#AFCDFB"/>
<path d="M64.4814 105.368L59.7645 104.601C59.7137 104.577 59.6643 104.558 59.6082 104.55C59.5561 104.543 59.5054 104.541 59.452 104.55C58.8042 104.646 58.1151 105.923 57.8587 107.56C57.844 107.646 57.832 107.73 57.8227 107.815C57.7305 108.539 57.7439 109.211 57.84 109.748C57.9455 110.322 58.1472 110.74 58.425 110.897C58.4303 110.901 58.437 110.904 58.441 110.908C58.4931 110.936 58.5478 110.955 58.6039 110.963C58.6573 110.972 58.7134 110.97 58.7695 110.96L100.008 117.672L100.52 114.508L101.034 111.319L64.4814 105.368Z" fill="#E9F3FE"/>
<path d="M81.6224 114.068C72.8015 113.5 68.1259 108.821 64.4814 105.37L59.7645 104.602C59.7137 104.578 59.6643 104.559 59.6082 104.551C59.5561 104.545 59.5054 104.542 59.452 104.551C58.8042 104.648 58.1151 105.924 57.8587 107.561C57.844 107.647 57.832 107.732 57.8227 107.816C57.7305 108.541 57.7439 109.212 57.84 109.749C58.0617 110.377 58.2887 110.805 58.425 110.899C58.4303 110.903 58.437 110.905 58.441 110.909C58.4931 110.937 58.5478 110.956 58.6039 110.964C58.6573 110.974 58.7134 110.971 58.7695 110.962L100.008 117.673L100.52 114.509C99.8918 114.583 95.6423 114.972 81.6224 114.068Z" fill="#BED4F4"/>
<path d="M101.11 111.291C100.421 111.183 99.6368 112.53 99.3603 114.301C99.0825 116.072 99.4164 117.595 100.106 117.705C100.795 117.814 101.579 116.466 101.855 114.695C102.133 112.924 101.799 111.4 101.11 111.291Z" fill="#AFCDFB"/>
<path d="M86.4395 123.465C76.8747 121.939 70.5512 117.917 67.9563 115.973C67.0696 115.309 66.6182 114.887 66.6182 114.887C61.7169 104.55 70.5846 86.427 72.2045 83.3551C73.954 80.0422 84.6326 78.5859 84.6326 78.5859C84.6326 78.5859 82.9272 83.6177 82.2608 90.178C81.5943 96.7384 74.4882 109.525 74.7794 110.599C74.8528 110.869 75.7102 111.436 76.9629 112.153C80.6755 114.272 87.8484 117.691 88.2838 118.493C88.8674 119.565 86.4395 123.465 86.4395 123.465Z" fill="#874E05"/>
<path d="M88.2851 118.493C88.2851 118.493 93.6297 116.348 94.9412 117.226C96.2526 118.103 98.4388 119.419 98.4388 120.296C98.4388 121.174 95.669 123.513 93.3372 124.244C91.0055 124.976 86.4381 123.465 86.4381 123.465L88.2851 118.493Z" fill="#874E05"/>
<path d="M82.2608 90.178C81.5943 96.7384 74.4882 109.525 74.7794 110.598C74.8528 110.869 75.7102 111.436 76.9629 112.153C76.8841 112.158 76.8039 112.159 76.7225 112.157C71.1321 111.91 68.6014 115.011 67.9563 115.972C67.0696 115.307 66.6182 114.885 66.6182 114.885C61.7169 104.549 70.5846 86.4256 72.2045 83.3538C73.954 80.0408 84.6326 78.5846 84.6326 78.5846C84.6326 78.5846 82.9272 83.619 82.2608 90.178Z" fill="#FFA412"/>
<path d="M96.1352 74.2575C96.1352 74.2575 85.8559 76.3407 84.6606 69.8996C83.4654 63.4585 81.3353 59.3886 87.8471 57.7863C94.3603 56.1841 96.0951 58.4039 97.0152 60.4563C97.9354 62.5073 98.7781 73.5488 96.1352 74.2575Z" fill="#874E05"/>
<path d="M84.8662 71.7563C84.8662 71.7563 82.879 67.5016 81.2217 65.6127C79.5643 63.7237 80.4685 54.2778 87.6254 54.5792C94.7822 54.882 97.3437 60.0209 97.4185 61.0029C97.4933 61.9848 91.6932 61.2293 90.1107 62.514C88.5281 63.7988 90.0359 65.9141 88.2277 66.671C86.4194 67.4266 84.9878 67.4266 85.2896 69.0891C85.5914 70.7503 84.8662 71.7563 84.8662 71.7563Z" fill="#1B5B62"/>
<path d="M87.0752 50.1917C85.0279 50.7075 83.4908 51.5327 82.3449 52.5254C82.2314 52.6232 82.1206 52.7237 82.0137 52.8269L82.0124 52.8282C77.7682 56.8887 79.4616 63.3499 79.4616 63.3499C79.4616 63.3499 80.0265 64.9829 80.4152 65.6166C80.8038 66.2503 86.4395 65.5188 86.7307 64.3011C87.0218 63.0833 88.1396 61.816 88.1396 61.816C88.1396 61.816 94.0799 61.4061 94.4792 61.3779C95.8213 61.2801 99.6515 59.9431 99.6515 59.9431C99.6074 59.5654 97.452 47.5781 87.0752 50.1917Z" fill="#FFA412"/>
<path d="M103.17 58.6759C102.457 58.5017 101.242 58.3061 99.2401 58.2324C99.2401 58.2324 97.5588 59.6297 94.216 60.6947C92.6455 58.7094 88.1703 53.9241 82.3436 52.5255C82.3262 52.5215 82.3102 52.5161 82.2928 52.5121C82.1686 52.6688 82.0992 52.7211 82.0123 52.8269L82.011 52.8282C81.9843 52.8591 81.9576 52.8952 81.9269 52.9408C86.6705 53.77 91.1791 59.1139 92.727 61.1141C91.3995 61.4423 89.8717 61.7008 88.1396 61.8147C88.1396 61.8147 98.5216 62.0089 103.267 59.5024C103.629 59.3122 103.567 58.7737 103.17 58.6759Z" fill="#E27F2B"/>
<path d="M113.742 105.969C113.55 107.062 112.962 108.213 111.285 108.573C111.35 108.42 111.409 108.275 111.46 108.142C111.632 107.693 111.722 107.344 111.702 107.138C111.639 106.502 109.646 104.956 107.331 103.12C107.14 102.08 106.673 98.9903 107.329 96.5387C108.13 93.5419 113.961 104.725 113.742 105.969Z" fill="#E27F2B"/>
<path d="M75.8477 111.414C75.8477 111.414 68.7055 110.829 66.3738 114.997C66.3738 114.997 66.5728 116.402 67.955 115.973C67.955 115.973 73.9967 111.831 76.9615 112.152C76.9629 112.152 76.5035 111.426 75.8477 111.414Z" fill="#903A00"/>
<path d="M111.285 108.573C111.285 108.573 114.99 108.728 119.654 110.766C119.654 110.766 120.689 109.745 120.277 109.161C119.863 108.576 113.297 106.474 111.285 108.573Z" fill="#903A00"/>
<path d="M162.716 84.2353C165.926 67.7266 168.87 51.9213 168.87 51.9213C168.87 51.9213 159.73 53.3105 155.795 56.5994C151.86 59.8882 151.462 80.8352 150.15 86.7565C149.892 87.9193 149.66 89.7962 149.461 92.083C148.715 100.599 149.644 113.351 150.347 116.927C150.3 117.271 150.009 118.958 148.46 122.196C148.46 122.196 147.658 124.681 152.905 128.409C156.248 130.787 159.228 102.18 162.716 84.2353Z" fill="#874E05"/>
<path d="M168.868 51.9213C168.868 51.9213 167.172 61.0296 164.95 72.6391C164.246 76.3232 163.488 80.2578 162.715 84.2339C159.569 90.4178 156.87 94.623 156.036 93.8326C154.334 92.221 151.348 92.0227 149.458 92.083C149.657 89.7962 149.89 87.9193 150.148 86.7565C150.25 86.2889 150.349 85.7276 150.444 85.0886C151.545 77.6388 152.168 59.6283 155.793 56.5994C159.73 53.3105 168.868 51.9213 168.868 51.9213Z" fill="#87CDD9"/>
<path d="M164.951 72.6405C164.248 76.3246 163.489 80.2592 162.716 84.2353C159.571 90.4192 156.872 94.6244 156.037 93.834C154.336 92.2224 151.35 92.0241 149.46 92.0844C149.659 89.7976 149.891 87.9207 150.149 86.7579C150.252 86.2904 150.351 85.729 150.445 85.09L159.875 62.2542L164.951 72.6405Z" fill="#35BCCB"/>
<path d="M181.921 51.6895C181.991 48.5025 181.939 44.6965 181.509 41.4813L168.826 43.5605C168.826 43.5605 168.826 47.4428 168.882 51.7512C168.874 51.7525 168.87 51.7525 168.87 51.7525C168.87 51.7525 168.524 55.7487 173.43 56.3342C178.337 56.9182 182.054 54.7734 181.921 51.6895Z" fill="#874E05"/>
<path d="M168.79 44.3441C168.79 44.3441 171.777 50.4851 175.203 50.4851C178.628 50.4851 181.835 44.7098 181.835 44.7098L168.79 44.3441Z" fill="#793800"/>
<path d="M177.243 220.348C177.243 220.348 177.705 216.741 178.774 214.596C179.842 212.452 186.644 213.817 186.644 213.817C186.644 213.817 188.005 214.986 188.296 220.444L177.243 220.348Z" fill="#1B5B62"/>
<path d="M154.071 220.298C155.67 219.32 154.76 212.02 154.76 212.02C154.76 212.02 147.314 206.044 146.289 210.619C145.265 215.194 139.215 217.249 135.771 217.809C133.394 218.196 132.658 219.517 132.43 220.298H154.071Z" fill="#1B5B62"/>
<path d="M183.129 37.812C183.129 37.812 191.596 24.4207 175.338 23.5352C175.338 23.5352 169.24 24.2559 167.859 22.8707C167.859 22.8707 163.129 30.0821 167.546 37.812C171.964 45.5418 183.129 37.812 183.129 37.812Z" fill="#1B5B62"/>
<path d="M169.202 44.7997C170.435 45.7723 174.048 46.7382 175.093 46.8507C175.093 46.8507 180.451 45.6517 181.426 45.0623C182.934 44.1446 182.838 42.2878 182.915 39.7076C183.007 36.6519 183.314 34.2525 182.975 32.4922C182.571 30.3849 181.239 29.1873 177.51 28.8604C170.666 28.2643 167.815 29.9844 167.695 32.2859C167.664 32.9035 167.635 33.493 167.614 34.0516C167.341 41.2308 167.906 43.7762 169.202 44.7997Z" fill="#874E05"/>
<path d="M169.496 166.054C169.193 167.73 169.001 169.104 168.95 170.089C168.258 183.634 157.584 214.606 155.674 215.328C152.72 216.446 148.067 214.069 145.634 213.292C144.625 212.969 143.944 211.948 144.169 210.912C149.454 186.535 151.398 151.431 152.104 130.649C152.461 120.181 154.253 112.95 154.253 112.95C154.253 112.95 180.288 105.982 180.442 114.796C180.578 122.596 171.817 153.186 169.496 166.054Z" fill="#207C8B"/>
<path d="M169.496 166.054L152.104 130.649C152.461 120.181 154.253 112.95 154.253 112.95C154.253 112.95 180.288 105.982 180.442 114.796C180.578 122.596 171.817 153.186 169.496 166.054Z" fill="#1B5B62"/>
<path d="M163.703 114.827L177.466 214.889C177.466 214.889 183.511 216.35 188.212 215.181C188.212 215.181 192.241 161.962 191.906 149.098C191.57 136.232 194.797 114.671 191.168 112.293C187.54 109.917 163.703 114.827 163.703 114.827Z" fill="#207C8B"/>
<path d="M193.146 112.293C193.192 113.452 192.277 114.419 191.122 114.437L169.433 114.769L153.504 115.013C152.757 115.026 155.116 109.039 155.164 70.0027C155.176 61.2922 168.619 51.9186 168.867 51.9186L168.87 51.9213C168.87 53.1752 170.84 55.4915 173.877 55.6897C177.48 55.9269 181.9 54.1277 181.9 52.0458C181.9 52.0231 182.318 52.4772 182.991 53.4592C184.79 56.0876 188.413 62.4979 190.726 73.6559C192.552 82.4669 191.85 94.2479 193.165 109.449C193.26 110.549 193.118 111.524 193.146 112.293Z" fill="#FFA412"/>
<path d="M192.346 114.557C192.346 114.557 189.463 115.853 184.07 116.974C180.061 117.808 174.666 118.548 168.036 118.59C157.494 118.657 153.502 115.011 153.502 115.011C152.756 115.025 155.114 109.038 155.162 70.0013C155.174 61.2909 168.617 51.9172 168.866 51.9172L168.868 51.9199C168.868 51.9199 168.523 63.52 172.022 66.9308C172.022 66.9308 176.927 63.1302 183.292 52.3111C185.091 54.9395 188.412 62.4979 190.725 73.6559C191.194 75.9267 191.497 78.393 191.711 81.0643C192.324 88.7633 192.187 98.1637 193.164 109.449C193.26 110.548 193.118 111.523 193.146 112.292C193.192 113.452 193.502 114.54 192.346 114.557Z" fill="#87CDD9"/>
<path d="M192.346 114.557C192.346 114.557 189.463 115.853 184.07 116.974C182.374 114.379 180.236 109.694 179.94 102.313C179.439 89.8297 191.259 73.7551 191.259 73.7551L191.711 81.0657C192.324 88.7647 192.187 98.1651 193.164 109.45C193.26 110.549 193.118 111.524 193.146 112.293C193.192 113.452 193.502 114.54 192.346 114.557Z" fill="#35BCCB"/>
<path d="M182.103 72.2883L161.954 83.9581L177.912 111.683L198.061 100.014L182.103 72.2883Z" fill="#207C8B"/>
<path d="M194.661 56.1131C192.193 54.2416 186.397 52.914 183.544 52.35C182.539 52.1517 181.899 52.0472 181.899 52.0472C182.197 53.4231 182.866 55.5813 183.739 58.1722C187.404 69.0301 194.666 87.4947 193.202 87.8872C192.011 88.2074 190.489 88.4901 188.813 88.7352C182.442 89.6703 173.871 90.0843 172.974 90.1258C172.903 90.0601 169.85 87.2053 168.662 87.2053C167.458 87.2053 163.993 88.4726 163.639 89.4466C163.285 90.4219 163.143 92.1755 164.134 92.5653C165.125 92.9552 169.228 93.9304 170.289 94.0269C170.435 94.0403 170.61 94.0403 170.8 94.0229C178.421 96.2708 184.983 97.3734 190.039 97.8958C197.093 98.6219 201.219 98.2187 201.219 98.2187C206.329 87.1879 197.998 58.6437 194.661 56.1131Z" fill="#874E05"/>
<path d="M201.219 98.22C201.219 98.22 197.093 98.6233 190.039 97.8972C190.427 95.9748 190.789 92.2197 188.813 88.7366C190.489 88.4914 192.012 88.2087 193.202 87.8886C194.666 87.4947 187.404 69.0315 183.739 58.1735C183.447 54.6636 183.292 52.3138 183.292 52.3138L183.544 52.3514C186.397 52.9154 192.193 54.243 194.661 56.1145C197.998 58.6437 206.329 87.1879 201.219 98.22Z" fill="#87CDD9"/>
<path d="M172.022 66.9322C172.022 66.9322 181.835 62.5944 181.98 62.2541C182.126 61.9125 181.494 59.2814 180.814 58.5017C180.814 58.5017 185.527 58.9398 185.819 58.3557C186.11 57.7703 186.329 52.9595 186.329 52.9595C186.329 52.9595 184.367 50.9233 181.938 50.7277C181.938 50.7277 179.805 56.0434 179.017 57.6256C176.928 61.816 172.022 66.9322 172.022 66.9322Z" fill="#35BCCB"/>
<path d="M169.688 58.3557C169.688 58.3557 170.32 63.4236 172.02 66.9322C172.02 66.9322 166.895 63.3499 166.458 62.1804C166.021 61.0109 167.697 58.7442 167.697 58.7442C167.697 58.7442 164.636 58.6705 164.564 57.6483C164.491 56.6248 165.511 52.6045 165.511 52.6045C165.511 52.6045 168.143 50.6767 168.872 50.7491L169.688 58.3557Z" fill="#35BCCB"/>
<path d="M186.302 30.3514L164.508 30.5858C164.508 30.5858 164.189 23.9934 167.966 19.7908C168.138 19.5966 168.321 19.4077 168.513 19.2255C169.328 18.4485 170.31 17.7787 171.49 17.2843C175.846 15.4611 179.459 17.1437 181.717 18.8665C181.94 19.0353 182.149 19.2054 182.344 19.3729C183.571 20.4191 184.256 21.3529 184.256 21.3529C184.256 21.3529 186.373 24.2479 186.302 30.3514Z" fill="#FFA412"/>
<path d="M180.18 30.4171C180.12 29.5289 179.735 21.9692 182.382 19.4064C182.187 19.2376 182.243 19.2724 182.022 19.1036C179.199 22.0509 178.974 29.4914 178.986 30.4291L172.019 30.5042C171.812 25.1495 168.866 19.819 168.513 19.2229C168.32 19.4064 168.284 19.4426 168.111 19.6368C168.623 20.5384 170.546 25.7015 170.73 30.5176L164.508 30.5845C164.508 30.5845 170.314 32.0903 174.685 32.0354C179.057 31.9805 186.302 30.3514 186.302 30.3514L180.18 30.4171Z" fill="#E27F2B"/>
</g>
<defs>
<clipPath id="clip0_1406_25311">
<rect width="343" height="221" fill="white"/>
</clipPath>
</defs>
</svg>
