<svg width="16" height="3" viewBox="0 0 16 3" fill="none" xmlns="http://www.w3.org/2000/svg">
<path d="M12.75 1.5C12.75 0.835938 13.2969 0.25 14 0.25C14.6641 0.25 15.25 0.835938 15.25 1.5C15.25 2.20312 14.6641 2.75 14 2.75C13.2969 2.75 12.75 2.20312 12.75 1.5ZM6.5 1.5C6.5 0.835938 7.04688 0.25 7.75 0.25C8.41406 0.25 9 0.835938 9 1.5C9 2.20312 8.41406 2.75 7.75 2.75C7.04688 2.75 6.5 2.20312 6.5 1.5ZM2.75 1.5C2.75 2.20312 2.16406 2.75 1.5 2.75C0.796875 2.75 0.25 2.20312 0.25 1.5C0.25 0.835938 0.796875 0.25 1.5 0.25C2.16406 0.25 2.75 0.835938 2.75 1.5Z" fill="#00A1DE"/>
</svg>
