<svg width="18" height="19" viewBox="0 0 18 19" fill="none" xmlns="http://www.w3.org/2000/svg">
<path d="M8.4375 4.1875C8.4375 3.90625 8.68359 3.625 9 3.625C9.28125 3.625 9.5625 3.90625 9.5625 4.1875V8.96875L12.6562 11.043C12.9375 11.2188 13.0078 11.5703 12.832 11.8164C12.6562 12.0977 12.3047 12.168 12.0586 11.9922L8.68359 9.74219C8.50781 9.63672 8.40234 9.46094 8.40234 9.25L8.4375 4.1875ZM9 0.25C13.957 0.25 18 4.29297 18 9.25C18 14.2422 13.957 18.25 9 18.25C4.00781 18.25 0 14.2422 0 9.25C0 4.29297 4.00781 0.25 9 0.25ZM1.125 9.25C1.125 13.6094 4.64062 17.125 9 17.125C13.3242 17.125 16.875 13.6094 16.875 9.25C16.875 4.92578 13.3242 1.375 9 1.375C4.64062 1.375 1.125 4.92578 1.125 9.25Z" fill="#24282C"/>
</svg>
