<svg width="28" height="25" viewBox="0 0 28 25" fill="none" xmlns="http://www.w3.org/2000/svg">
<path d="M27.4688 12.4375C27.7969 12.7188 27.7969 13.1875 27.5156 13.5156C27.2812 13.8438 26.8125 13.8438 26.4844 13.5625L24.75 12.0156V21.25C24.75 23.3594 23.0625 25 21 25H7.5C5.39062 25 3.75 23.3594 3.75 21.25V12.0156L1.96875 13.5625C1.64062 13.8438 1.17188 13.8438 0.9375 13.5156C0.65625 13.1875 0.65625 12.7188 0.984375 12.4375L13.7344 1.23438C14.0156 0.953125 14.4375 0.953125 14.7188 1.23438L27.4688 12.4375ZM7.5 23.5H10.5V16C10.5 15.2031 11.1562 14.5 12 14.5H16.5C17.2969 14.5 18 15.2031 18 16V23.5H21C22.2188 23.5 23.25 22.5156 23.25 21.25V10.7031L14.25 2.78125L5.25 10.7031V21.25C5.25 22.5156 6.23438 23.5 7.5 23.5ZM12 23.5H16.5V16H12V23.5Z" fill="black"/>
</svg>
