<svg width="19" height="24" viewBox="0 0 19 24" fill="none" xmlns="http://www.w3.org/2000/svg">
<path d="M17.8594 5.90625L12.8438 0.890625C12.2812 0.328125 11.5312 0 10.7344 0H3.75C2.0625 0 0.75 1.35938 0.75 3V21C0.75 22.6875 2.0625 24 3.75 24H15.75C17.3906 24 18.75 22.6875 18.75 21V8.01562C18.75 7.21875 18.4219 6.46875 17.8594 5.90625ZM11.25 1.64062C11.4375 1.6875 11.625 1.78125 11.8125 1.96875L16.7812 6.9375C16.9688 7.125 17.0625 7.3125 17.1094 7.5H12C11.5781 7.5 11.25 7.17188 11.25 6.75V1.64062ZM17.25 21C17.25 21.8438 16.5469 22.5 15.75 22.5H3.75C2.90625 22.5 2.25 21.8438 2.25 21V3C2.25 2.20312 2.90625 1.5 3.75 1.5H9.75V6.75C9.75 8.01562 10.7344 9 12 9H17.25V21ZM4.5 4.5H7.5C7.875 4.5 8.25 4.17188 8.25 3.75C8.25 3.375 7.875 3 7.5 3H4.5C4.07812 3 3.75 3.375 3.75 3.75C3.75 4.17188 4.07812 4.5 4.5 4.5ZM8.25 6.75C8.25 6.375 7.875 6 7.5 6H4.5C4.07812 6 3.75 6.375 3.75 6.75C3.75 7.17188 4.07812 7.5 4.5 7.5H7.5C7.875 7.5 8.25 7.17188 8.25 6.75ZM10.2188 13.5469C10.5 13.5938 10.875 13.6875 11.2031 13.8281C11.5781 13.9219 12 13.6875 12.1406 13.3125C12.2344 12.9375 12.0469 12.5156 11.625 12.375C11.1562 12.2344 10.7812 12.1406 10.4531 12.0938C10.4531 12.0469 10.5 12.0469 10.5 12V11.25C10.5 10.875 10.125 10.5 9.75 10.5C9.32812 10.5 9 10.875 9 11.25V12C9 12.0469 9 12.0469 9 12.0469C7.78125 12.2344 6.9375 12.8438 6.75 13.8281C6.42188 15.7031 8.29688 16.1719 9.23438 16.4062L9.5625 16.5C11.0625 16.875 11.2969 17.0625 11.2031 17.4375C11.1094 17.9062 10.2656 18.1406 9.23438 18C8.85938 17.9062 8.34375 17.7656 7.92188 17.625L7.6875 17.5781C7.3125 17.4375 6.89062 17.6719 6.75 18.0469C6.65625 18.4219 6.84375 18.8438 7.26562 18.9844L7.5 19.0781C7.96875 19.2188 8.48438 19.3594 9 19.4531V19.5V20.25C9 20.6719 9.32812 21 9.75 21C10.125 21 10.5 20.6719 10.5 20.25V19.5C10.5 19.5 10.4531 19.5 10.4531 19.4531C11.6719 19.3125 12.5156 18.7031 12.7031 17.7188C13.0312 15.8438 11.1562 15.375 9.89062 15.0469L9.60938 14.9531C8.15625 14.5781 8.20312 14.3438 8.25 14.1094C8.34375 13.6406 9.1875 13.4062 10.2188 13.5469Z" fill="#798C9A"/>
</svg>
