<svg width="28" height="24" viewBox="0 0 28 24" fill="none" xmlns="http://www.w3.org/2000/svg">
<path d="M12.25 6C13.8906 6 15.2031 4.6875 15.2031 3C15.2031 1.35938 13.8438 0 12.25 0C10.6094 0 9.25 1.35938 9.25 3C9.25 4.6875 10.5625 6 12.25 6ZM12.25 1.5C13.0469 1.5 13.7031 2.20312 13.7031 3C13.7031 3.84375 13.0469 4.5 12.25 4.5C11.4062 4.5 10.75 3.84375 10.75 3C10.75 2.20312 11.4062 1.5 12.25 1.5ZM10.3281 17.3438L3.625 13.5938C3.39062 13.5 3.15625 13.5 2.92188 13.5938C2.73438 13.6875 2.54688 13.875 2.5 14.1094L0.296875 23.1094C0.203125 23.4844 0.4375 23.9062 0.859375 24C0.859375 24 0.90625 24 1 24C1.32812 24 1.60938 23.8125 1.70312 23.4375L3.71875 15.4219L9.20312 18.4688V23.25C9.20312 23.6719 9.57812 24 9.95312 24C10.3281 24 10.6562 23.6719 10.6562 23.25V18C10.75 17.7656 10.5625 17.4844 10.3281 17.3438ZM27.1562 22.9219L22.8438 14.625C22.4688 13.9688 21.8125 13.5469 21.0625 13.5C20.2188 13.4531 19.5625 13.875 19.1875 14.4844L17.7344 16.7812L14.4531 15.0469C14.4531 15 14.4531 14.9531 14.4531 14.9062L13.7031 10.875C13.4219 9.375 12.5312 8.0625 11.2188 7.3125L8.17188 5.57812C7 4.875 5.59375 4.64062 4.28125 4.96875C3.29688 5.25 2.45312 5.90625 1.98438 6.79688L1.04688 8.67188C0.859375 9.04688 1 9.46875 1.375 9.70312L16.9844 18.0938L16.6094 18.6562H15.2969C14.4062 18.6562 13.6094 19.2188 13.3281 20.0625L12.25 23.0156C12.2031 23.25 12.2031 23.4844 12.3438 23.7188C12.4844 23.9062 12.7188 24 12.9531 24H26.4531C26.6875 24 26.9219 23.8594 27.0625 23.6719C27.25 23.4375 27.25 23.1562 27.1562 22.9219ZM2.73438 8.71875L3.34375 7.5C3.57812 6.98438 4.04688 6.60938 4.60938 6.46875C5.59375 6.23438 6.57812 6.375 7.42188 6.84375L10.4688 8.625C11.4062 9.1875 12.0625 10.125 12.25 11.1562L12.8125 14.1562L2.73438 8.71875ZM14.0312 22.5L14.7344 20.5312C14.8281 20.2969 15.0625 20.1562 15.2969 20.1562H17.0312C17.2656 20.1562 17.5469 20.0156 17.6875 19.8281L20.4531 15.2812C20.5938 15.0469 20.875 15 21.0156 15C21.2031 15.0469 21.4375 15.1406 21.5312 15.3281L25.2344 22.5H14.0312Z" fill="#798C9A"/>
</svg>
