<svg width="22" height="24" viewBox="0 0 22 24" fill="none" xmlns="http://www.w3.org/2000/svg">
<path d="M21.7031 22.1719C21.0938 19.7344 18.8906 18 16.4062 18H6.04688C3.51562 18 1.35938 19.7344 0.75 22.1719C0.515625 23.1094 1.26562 24 2.25 24H20.2031C21.1875 24 21.9375 23.1094 21.7031 22.1719ZM2.25 22.5C2.67188 20.7656 4.26562 19.5 6.04688 19.5H16.3594C18.1406 19.5 19.7344 20.7656 20.2031 22.5H2.25ZM15.8438 10.5C15.8438 12.9844 13.8281 15 11.3438 15C8.85938 15 6.84375 12.9844 6.84375 10.5C6.84375 10.125 6.51562 9.75 6.09375 9.75C5.67188 9.75 5.34375 10.125 5.34375 10.5C5.34375 13.8281 8.01562 16.5 11.3438 16.5C14.625 16.5 17.3438 13.8281 17.3438 10.5C17.3438 10.125 17.0156 9.75 16.5938 9.75C16.1719 9.75 15.8438 10.125 15.8438 10.5ZM4.5 8.25H18.0938C18.4688 8.25 18.8438 7.92188 18.8438 7.5C18.8438 7.125 18.4688 6.75 18.0938 6.75H17.2969C17.2969 3.70312 15 1.21875 12.0469 0.84375V0.75C12.0469 0.375 11.7188 0 11.2969 0C10.875 0 10.5469 0.375 10.5469 0.75V0.84375C7.54688 1.21875 5.25 3.70312 5.25 6.79688C5.25 6.79688 5.25 6.75 5.25 6.79688L4.5 6.75C4.07812 6.75 3.75 7.125 3.75 7.5C3.75 7.92188 4.07812 8.25 4.5 8.25ZM12.0469 2.34375C14.1562 2.71875 15.7969 4.54688 15.7969 6.75H12.0469V2.34375ZM6.75 6.75C6.75 4.5 8.39062 2.67188 10.5469 2.29688V6.75H6.75Z" fill="#798C9A"/>
</svg>
