<svg width="16" height="12" viewBox="0 0 16 12" fill="none" xmlns="http://www.w3.org/2000/svg">
<path d="M4.625 10.875L0.125 6.375C0.03125 6.28125 0 6.15625 0 6C0 5.875 0.03125 5.75 0.125 5.65625L4.625 1.15625C4.8125 0.96875 5.15625 0.96875 5.34375 1.15625C5.53125 1.34375 5.53125 1.6875 5.34375 1.875L1.6875 5.5H15.5C15.75 5.5 16 5.75 16 6C16 6.28125 15.75 6.5 15.5 6.5H1.6875L5.34375 10.1562C5.53125 10.3438 5.53125 10.6875 5.34375 10.875C5.15625 11.0625 4.8125 11.0625 4.625 10.875Z" fill="#24282C"/>
</svg>
