<?xml version="1.0" standalone="no"?>
<!DOCTYPE svg PUBLIC "-//W3C//DTD SVG 20010904//EN"
 "http://www.w3.org/TR/2001/REC-SVG-20010904/DTD/svg10.dtd">
<svg version="1.0" xmlns="http://www.w3.org/2000/svg"
 width="426.000000pt" height="243.000000pt" viewBox="0 0 426.000000 243.000000"
 preserveAspectRatio="xMidYMid meet">

<g transform="translate(0.000000,243.000000) scale(0.100000,-0.100000)"
fill="#000000" stroke="none">
<path d="M704 1715 c-91 -20 -180 -69 -250 -139 -203 -203 -203 -519 1 -723
321 -321 868 -93 868 362 0 202 -106 372 -288 460 -111 54 -213 66 -331 40z
m238 -95 c253 -78 371 -369 248 -610 -34 -67 -120 -146 -197 -183 -64 -30 -75
-32 -178 -32 -103 0 -114 2 -177 32 -168 79 -255 225 -246 412 5 105 42 194
112 269 49 53 139 106 202 121 68 16 168 12 236 -9z"/>
<path d="M743 1465 c-12 -8 -27 -30 -33 -49 -25 -77 48 -151 125 -126 104 34
80 190 -29 190 -23 0 -51 -7 -63 -15z"/>
<path d="M1016 1243 c-35 -32 -56 -59 -60 -79 -3 -17 -18 -42 -32 -55 -23 -22
-34 -24 -122 -24 -90 0 -97 1 -97 20 0 18 8 20 93 23 84 2 93 5 107 26 12 18
13 30 6 50 -6 14 -12 26 -13 27 -2 0 -41 5 -88 9 -47 5 -109 14 -138 21 -46
11 -57 11 -80 -2 -26 -14 -27 -18 -30 -116 -3 -102 -3 -102 25 -120 22 -15 53
-19 165 -21 132 -4 141 -3 191 22 39 19 69 46 120 109 67 84 80 120 55 145
-22 22 -47 13 -102 -35z"/>
<path d="M2330 1580 l0 -80 105 0 105 0 0 80 0 80 -105 0 -105 0 0 -80z"/>
<path d="M1540 1235 l0 -415 110 0 110 0 0 150 0 150 175 0 175 0 0 85 0 85
-175 0 -175 0 0 100 0 100 220 0 220 0 0 80 0 80 -330 0 -330 0 0 -415z"/>
<path d="M3535 1455 c-11 -2 -59 -7 -107 -10 l-88 -7 0 -74 c0 -53 4 -74 13
-74 6 0 78 5 160 10 171 12 187 8 187 -45 l0 -35 -127 0 c-148 0 -190 -9 -238
-51 -40 -36 -55 -80 -55 -164 0 -74 26 -134 71 -166 30 -21 44 -24 134 -24 88
0 107 3 159 28 71 33 74 33 78 5 3 -22 8 -23 96 -26 l92 -3 0 256 c0 235 -2
259 -20 295 -11 21 -34 49 -52 62 -30 21 -44 23 -158 25 -69 0 -134 -1 -145
-2z m165 -424 l0 -39 -63 -11 c-112 -19 -147 -10 -147 37 0 45 16 52 117 52
l93 0 0 -39z"/>
<path d="M2686 1292 l95 -159 -95 -152 c-53 -84 -96 -154 -96 -157 0 -2 51 -4
114 -4 l114 0 46 85 c26 46 51 87 55 90 5 3 33 -35 61 -85 l52 -90 115 0 115
0 -14 23 c-49 74 -170 271 -175 283 -2 7 36 80 86 163 50 82 91 152 91 155 0
3 -51 6 -112 6 l-113 0 -51 -96 -51 -96 -50 94 -50 93 -116 3 -116 3 95 -159z"/>
<path d="M2240 1351 l0 -80 43 -3 42 -3 3 -222 2 -223 105 0 105 0 -2 303 -3
302 -147 3 -148 3 0 -80z"/>
</g>
</svg>
