<svg width="19" height="19" viewBox="0 0 19 19" fill="none" xmlns="http://www.w3.org/2000/svg">
<path d="M16.7148 0.25H3.21484C1.94922 0.25 0.964844 1.26953 0.964844 2.5V12.5898C0.964844 13.8203 1.94922 14.8047 3.21484 14.8047H6.58984V17.7227C6.58984 18.0742 6.97656 18.25 7.25781 18.0742L11.6523 14.7695H16.7148C17.9453 14.7695 18.9648 13.75 18.9648 12.5547V2.5C18.9648 1.26953 17.9805 0.25 16.7148 0.25ZM17.875 12.625C17.875 13.2578 17.3477 13.75 16.75 13.75H11.6523C11.4062 13.75 11.1953 13.8555 10.9844 13.9961L7.75 16.4219V14.3125C7.75 14.0312 7.46875 13.75 7.1875 13.75H3.25C2.61719 13.75 2.125 13.2578 2.125 12.625V2.5C2.125 1.90234 2.61719 1.375 3.25 1.375H16.75C17.3477 1.375 17.875 1.90234 17.875 2.5V12.625ZM5.5 6.71875C5.00781 6.71875 4.65625 7.10547 4.65625 7.5625C4.65625 8.05469 5.00781 8.40625 5.5 8.40625C5.95703 8.40625 6.34375 8.05469 6.34375 7.5625C6.34375 7.10547 5.95703 6.71875 5.5 6.71875ZM14.5 6.71875C14.0078 6.71875 13.6562 7.10547 13.6562 7.5625C13.6562 8.05469 14.0078 8.40625 14.5 8.40625C14.957 8.40625 15.3438 8.05469 15.3438 7.5625C15.3438 7.10547 14.957 6.71875 14.5 6.71875ZM10 6.71875C9.50781 6.71875 9.15625 7.10547 9.15625 7.5625C9.15625 8.05469 9.50781 8.40625 10 8.40625C10.457 8.40625 10.8438 8.05469 10.8438 7.5625C10.8438 7.10547 10.457 6.71875 10 6.71875Z" fill="#24282C"/>
</svg>
