<svg width="20" height="20" viewBox="0 0 20 20" fill="none" xmlns="http://www.w3.org/2000/svg">
<path d="M12.9688 16.6797C9.33594 17.3828 5.97656 14.5703 5.97656 10.8984C5.97656 8.78906 7.10938 6.83594 8.94531 5.78125C9.25781 5.625 9.17969 5.19531 8.86719 5.15625C4.21875 4.29688 0 7.8125 0 12.5C0 16.6406 3.32031 20 7.46094 20C9.80469 20 11.9141 18.9844 13.2812 17.2266C13.5156 16.9922 13.2812 16.6016 12.9688 16.6797ZM11.25 2.5L11.7188 3.63281C11.7578 3.71094 11.7969 3.75 11.8359 3.75C11.9141 3.75 11.9531 3.71094 11.9922 3.63281L12.4609 2.5L13.6328 1.99219C13.7109 1.99219 13.75 1.95312 13.75 1.875C13.75 1.79688 13.7109 1.75781 13.6328 1.71875L12.4609 1.25L11.9922 0.078125C11.9531 0.0390625 11.9141 0 11.875 0C11.7969 0 11.7578 0.0390625 11.7188 0.078125L11.25 1.25L10.0781 1.75781C10 1.79688 9.96094 1.83594 9.96094 1.875C9.96094 1.95312 10 1.99219 10.0781 2.03125L11.25 2.5ZM19.8047 8.47656L17.5 7.5L16.5234 5.19531C16.4453 5.07812 16.3672 5 16.25 5C16.1328 5 16.0156 5.03906 15.9375 5.15625L15 7.5L12.6562 8.47656C12.5391 8.55469 12.5 8.63281 12.5 8.75C12.5 8.86719 12.5391 8.98438 12.6562 9.0625L15 10L15.9375 12.3438C16.0156 12.4609 16.1328 12.5 16.25 12.5C16.3672 12.5 16.4453 12.4609 16.5234 12.3438L17.5 10L19.8047 9.0625C19.9219 8.98438 20 8.86719 20 8.75C20 8.63281 19.9219 8.55469 19.8047 8.47656Z" fill="#DFF3FB"/>
</svg>
