<svg width="5" height="17" viewBox="0 0 5 17" fill="none" xmlns="http://www.w3.org/2000/svg">
<path d="M2.5 12.5625C3.67188 12.5625 4.6875 13.5781 4.6875 14.75C4.6875 15.9609 3.67188 16.9375 2.5 16.9375C1.28906 16.9375 0.3125 15.9609 0.3125 14.75C0.3125 13.5781 1.28906 12.5625 2.5 12.5625ZM2.5 6.3125C3.67188 6.3125 4.6875 7.32812 4.6875 8.5C4.6875 9.71094 3.67188 10.6875 2.5 10.6875C1.28906 10.6875 0.3125 9.71094 0.3125 8.5C0.3125 7.32812 1.28906 6.3125 2.5 6.3125ZM2.5 4.4375C1.28906 4.4375 0.3125 3.46094 0.3125 2.25C0.3125 1.07812 1.28906 0.0625 2.5 0.0625C3.67188 0.0625 4.6875 1.07812 4.6875 2.25C4.6875 3.46094 3.67188 4.4375 2.5 4.4375Z" fill="#A8BEC5"/>
</svg>
