<?xml version="1.0" standalone="no"?>
<!DOCTYPE svg PUBLIC "-//W3C//DTD SVG 20010904//EN"
 "http://www.w3.org/TR/2001/REC-SVG-20010904/DTD/svg10.dtd">
<svg version="1.0" xmlns="http://www.w3.org/2000/svg"
 width="242.000000pt" height="208.000000pt" viewBox="0 0 242.000000 208.000000"
 preserveAspectRatio="xMidYMid meet">

<g transform="translate(0.000000,208.000000) scale(0.100000,-0.100000)"
fill="#000000" stroke="none">
<path d="M0 1233 c0 -588 3 -844 10 -837 8 8 25 4 57 -13 52 -26 80 -29 117
-11 47 21 46 78 -2 96 -15 6 -45 16 -67 21 -81 21 -115 66 -94 128 13 42 53
63 116 63 60 0 121 -33 103 -55 -10 -13 -16 -13 -41 0 -41 22 -105 19 -129 -5
-24 -24 -24 -29 -5 -57 9 -13 39 -27 80 -38 81 -22 115 -51 115 -98 0 -97
-138 -137 -232 -67 l-28 21 0 -191 0 -190 448 1 c254 0 438 4 426 9 -33 13
-49 62 -32 97 17 36 60 57 93 46 36 -12 30 -29 -10 -25 -27 3 -37 -2 -50 -22
-16 -24 -16 -28 -1 -52 13 -18 24 -24 43 -22 32 4 44 28 14 28 -12 0 -21 6
-21 16 0 11 8 14 33 12 26 -2 33 -8 35 -30 2 -18 -4 -31 -20 -42 -22 -16 -22
-16 15 -16 l37 0 0 76 0 75 51 -3 c65 -4 82 -24 58 -67 -15 -26 -15 -30 0 -55
13 -21 23 -26 56 -25 35 0 37 2 18 11 -51 25 -50 100 1 134 75 48 155 -58 91
-121 l-24 -25 62 0 c58 0 60 1 39 16 -19 13 -22 24 -22 75 0 33 4 59 10 59 6
0 10 -18 10 -41 0 -49 15 -79 38 -79 30 0 42 21 42 72 0 36 4 48 15 48 31 0
15 -120 -19 -142 -6 -4 7 -8 29 -8 l40 0 -3 75 -4 75 51 0 c49 0 71 -15 71
-49 0 -20 -40 -51 -64 -51 -17 0 -25 -7 -28 -25 l-5 -25 448 0 449 0 0 165 0
165 -25 0 c-19 0 -36 15 -72 65 l-48 64 -52 1 -53 0 0 -65 c0 -58 -2 -65 -20
-65 -19 0 -20 7 -20 175 l0 175 83 0 c45 0 99 -5 120 -11 49 -13 80 -60 73
-108 -5 -35 -40 -81 -62 -81 -27 0 -22 -19 22 -79 25 -33 48 -61 50 -61 2 0 4
392 4 870 l0 870 -567 -1 c-507 -1 -561 -2 -505 -14 144 -31 280 -127 365
-255 123 -185 123 -445 0 -630 -136 -206 -377 -306 -616 -255 -156 33 -329
168 -396 308 -80 167 -80 354 0 522 48 103 158 210 269 263 47 23 110 46 140
51 37 6 -141 9 -527 10 l-583 1 0 -847z m412 -630 l3 -78 95 0 95 0 3 78 c3
69 5 77 22 77 19 0 20 -8 20 -175 0 -167 -1 -175 -20 -175 -17 0 -19 8 -22 78
l-3 77 -95 0 -95 0 -3 -77 c-3 -70 -5 -78 -22 -78 -19 0 -20 8 -20 175 0 167
1 175 20 175 17 0 19 -8 22 -77z m616 55 c3 -15 -9 -18 -105 -20 l-108 -3 0
-55 0 -55 93 -3 c72 -2 92 -6 92 -17 0 -11 -20 -15 -92 -17 l-93 -3 -3 -57 -3
-57 108 -3 c93 -3 108 -5 111 -20 3 -16 -8 -18 -127 -18 l-131 0 0 168 c0 93
3 172 7 176 4 3 61 5 127 4 105 -3 121 -5 124 -20z m150 -136 l3 -152 94 0
c89 0 95 -1 95 -20 0 -20 -5 -21 -117 -18 l-118 3 -3 160 c-1 87 0 165 3 173
3 7 13 12 22 10 16 -3 18 -20 21 -156z m492 138 c0 -18 -7 -20 -55 -20 l-54 0
-3 -152 c-3 -150 -3 -153 -25 -156 l-23 -3 0 155 0 156 -54 0 c-54 0 -73 10
-61 30 4 6 62 10 141 10 127 0 134 -1 134 -20z m350 0 c0 -19 -7 -20 -105 -20
l-106 0 3 -57 3 -58 93 -3 c72 -2 92 -6 92 -17 0 -11 -20 -15 -92 -17 l-93 -3
-3 -57 -3 -58 106 0 c98 0 105 -1 105 -20 0 -19 -7 -20 -125 -20 l-125 0 0
175 0 175 125 0 c118 0 125 -1 125 -20z"/>
<path d="M1083 2035 c-162 -44 -303 -164 -371 -315 -32 -72 -54 -201 -46 -267
l6 -53 127 0 c151 0 155 2 207 101 21 39 49 78 63 87 22 15 68 17 364 20 l338
3 -7 22 c-64 207 -208 352 -400 401 -75 19 -210 20 -281 1z"/>
<path d="M1256 1559 c-15 -12 -41 -53 -58 -91 -44 -99 -43 -98 -304 -98 l-216
0 6 -25 c24 -94 113 -226 193 -286 108 -82 216 -119 343 -119 148 0 271 47
376 143 119 108 177 239 178 397 l1 95 -246 3 c-238 2 -247 2 -273 -19z m504
1 c0 -6 -59 -10 -157 -10 -230 0 -230 0 -263 -74 -20 -43 -25 -65 -18 -73 8
-10 55 -13 175 -13 136 0 165 3 169 15 7 17 34 21 34 4 0 -6 -5 -19 -10 -30
-10 -18 -23 -19 -223 -18 -222 1 -254 5 -270 30 -14 22 50 150 83 166 32 16
480 18 480 3z m-40 -100 c0 -6 -30 -10 -71 -10 -44 0 -68 4 -64 10 3 6 35 10
71 10 36 0 64 -4 64 -10z"/>
<path d="M2170 570 l0 -70 65 0 c77 0 120 18 129 55 15 58 -27 85 -130 85
l-64 0 0 -70z"/>
<path d="M1040 105 c0 -23 4 -26 28 -23 19 2 27 9 27 23 0 14 -8 21 -27 23
-24 3 -28 0 -28 -23z"/>
<path d="M1197 112 c-22 -24 -21 -45 1 -65 49 -45 113 20 66 67 -21 21 -47 20
-67 -2z"/>
<path d="M1530 105 c0 -20 5 -25 24 -25 30 0 42 16 26 35 -21 25 -50 19 -50
-10z"/>
<path d="M1038 30 c-4 -29 -3 -30 34 -30 l38 0 -27 30 c-33 38 -40 38 -45 0z"/>
</g>
</svg>
