<?xml version="1.0" standalone="no"?>
<!DOCTYPE svg PUBLIC "-//W3C//DTD SVG 20010904//EN"
 "http://www.w3.org/TR/2001/REC-SVG-20010904/DTD/svg10.dtd">
<svg version="1.0" xmlns="http://www.w3.org/2000/svg"
 width="200.000000pt" height="200.000000pt" viewBox="0 0 200.000000 200.000000"
 preserveAspectRatio="xMidYMid meet">

<g transform="translate(0.000000,200.000000) scale(0.100000,-0.100000)"
fill="#000000" stroke="none">
<path d="M0 1000 l0 -1000 1000 0 1000 0 0 1000 0 1000 -1000 0 -1000 0 0
-1000z m1233 836 c287 -85 501 -292 593 -576 23 -72 28 -107 32 -231 3 -125 1
-158 -17 -230 -63 -252 -235 -463 -466 -575 -143 -70 -229 -87 -404 -82 -124
4 -159 9 -231 32 -349 113 -586 418 -607 781 -24 430 280 820 703 900 116 22
285 14 397 -19z"/>
<path d="M798 1810 c-300 -74 -536 -312 -608 -613 -20 -81 -28 -293 -14 -331
5 -14 30 -16 175 -16 120 0 179 4 202 14 44 18 88 70 137 164 23 44 50 88 60
97 46 42 73 44 578 45 395 0 482 2 482 13 0 8 -9 42 -21 78 -89 270 -313 477
-593 549 -105 27 -288 27 -398 0z"/>
<path d="M1064 1111 c-44 -27 -67 -60 -100 -142 -35 -88 -76 -132 -137 -148
-29 -7 -152 -11 -341 -11 -163 0 -296 -4 -296 -8 0 -18 38 -120 65 -172 115
-228 326 -391 570 -441 458 -95 894 194 989 654 16 76 21 222 10 265 l-6 22
-362 0 c-336 0 -363 -1 -392 -19z m734 -8 c-3 -17 -27 -18 -285 -23 -327 -6
-299 4 -353 -122 -27 -64 -30 -81 -20 -93 10 -13 52 -15 265 -15 244 0 253 1
258 20 3 12 14 20 26 20 25 0 25 -1 7 -45 l-15 -35 -324 0 c-436 0 -435 -1
-366 155 46 107 72 132 147 145 26 4 186 8 355 9 289 1 308 0 305 -16z m-48
-137 c0 -31 -15 -36 -116 -36 -57 0 -104 2 -104 4 0 31 15 36 116 36 57 0 104
-2 104 -4z"/>
</g>
</svg>
