<svg width="16" height="15" viewBox="0 0 16 15" fill="none" xmlns="http://www.w3.org/2000/svg">
<path d="M8.20215 12.6719L4.45605 14.6953C4.2373 14.8047 3.99121 14.7773 3.77246 14.6406C3.58105 14.5039 3.47168 14.2305 3.49902 13.9844L4.2373 9.74609L1.20215 6.73828C1.01074 6.54688 0.956055 6.30078 1.03809 6.05469C1.12012 5.83594 1.31152 5.64453 1.55762 5.61719L5.74121 4.98828L7.62793 1.13281C7.7373 0.914062 7.95605 0.75 8.20215 0.75C8.47559 0.75 8.69434 0.914062 8.80371 1.13281L10.6904 4.98828L14.874 5.61719C15.1201 5.64453 15.3115 5.83594 15.3936 6.05469C15.4756 6.30078 15.4209 6.54688 15.2295 6.73828L12.1943 9.74609L12.9053 13.9844C12.96 14.2305 12.8506 14.5039 12.6592 14.6406C12.4404 14.7773 12.167 14.8047 11.9482 14.6953L8.20215 12.6719ZM6.53418 5.37109C6.39746 5.64453 6.15137 5.80859 5.87793 5.86328L2.10449 6.41016L4.83887 9.11719C5.05762 9.30859 5.13965 9.60938 5.08496 9.88281L4.45605 13.7109L7.79199 11.9062C8.06543 11.7695 8.36621 11.7695 8.63965 11.9062L11.9756 13.7109L11.3467 9.88281C11.292 9.60938 11.374 9.30859 11.5928 9.11719L14.2998 6.41016L10.5537 5.86328C10.2529 5.80859 10.0068 5.64453 9.89746 5.37109L8.20215 1.92578L6.53418 5.37109Z" fill="#24282C"/>
</svg>
