<svg xmlns="http://www.w3.org/2000/svg" version="1.1" xmlns:xlink="http://www.w3.org/1999/xlink" xmlns:svgjs="http://svgjs.com/svgjs" width="512" height="512" x="0" y="0" viewBox="0 0 512 512" style="enable-background:new 0 0 512 512" xml:space="preserve" class=""><g><g xmlns="http://www.w3.org/2000/svg" id="Construction_Worker"><path d="m140 329.4v86.6h-16v56.5h-67.3s6.6-87.8 24.3-109.6c9.3-11.5 34.1-23.5 59-33.5z" fill="#000000" data-original="#000000"></path><path d="m172 447.8h-24c-4.4 0-8-3.7-7.9-8.1 0-4.4 3.6-7.9 7.9-7.9h24c4.4 0 8 3.7 7.9 8.1 0 4.3-3.5 7.8-7.9 7.9z" fill="#000000" data-original="#000000"></path><path d="m312 308.1c-.8-8-.6-10.7-2.1-23.6 0-.1 0-.3-.1-.4-24.4 19.5-73.3 31.8-107.1 1.7-1.5 15-1.1 14.4-1.8 22.4-3.4 1-11 3.3-20.9 6.6v101.2h152v-101.4c-9.6-3.2-16.8-5.5-20-6.5z" fill="#000000" data-original="#000000"></path><path d="m364 447.8h-24c-4.4 0-8-3.7-7.9-8.1 0-4.4 3.6-7.9 7.9-7.9h24c4.4 0 8 3.7 7.9 8.1 0 4.3-3.5 7.8-7.9 7.9z" fill="#000000" data-original="#000000"></path><path d="m388 472.5v-56.5h-16v-86.3c25.6 10.5 51.7 23.4 61.1 35.4 17 21.5 22.2 107.4 22.2 107.4z" fill="#000000" data-original="#000000"></path><path d="m351.8 182.2c-1.6 12.2-8.3 23.2-18.5 30.2-3.2 19.8-12.3 38.3-26.2 52.9-25.4 25.4-72.6 34.8-101.5.6-13.2-14.9-22.1-33.2-25.5-52.9-11.2-6.5-18.5-17.9-19.8-30.7 31.9 3.9 64 5.8 96.1 5.7 31.8 0 63.7-1.9 95.4-5.8z" fill="#000000" data-original="#000000"></path><path d="m348.6 139.7c.2-2.1.3-4.2.3-6.3-1-38.6-27.3-71.9-64.5-81.8l.3-2.2c0-5.1-4.1-9.2-9.1-9.3h-37.7c-5.1 0-9.2 4.2-9.1 9.3l.2 1.7c-38.2 9.3-65.5 43.1-66.5 82.4 0 2.1.1 4.3.3 6.4-6.9.6-12.2 6.5-12 13.4.4 7.3 6.2 13.2 13.5 13.5 30.6 3.4 61.3 5.2 92.1 5.2 30.6 0 61.1-1.8 91.4-5.2 7.3-.4 13.2-6.2 13.5-13.5.1-7.3-5.5-13.3-12.7-13.6zm-152.8-64.8c1.4-1.2 2.9-2.2 4.4-3.3 3.6-2.5 8.6-1.6 11.1 2s1.6 8.6-2 11.1c-1.2.9-2.3 1.7-3.4 2.6-3.4 2.7-8.5 2.2-11.2-1.3-2.8-3.4-2.3-8.4 1.1-11.1zm-24.3 37.1c1.7-7 4.6-13.7 8.6-19.8 2.4-3.7 7.4-4.8 11.1-2.3 3.7 2.4 4.7 7.3 2.4 11-3 4.6-5.1 9.7-6.5 15-1.1 4.3-5.4 6.9-9.7 5.8s-6.9-5.4-5.9-9.7zm149.4 37.7c-9 1-39.9 4.1-65 4.1-16.9 0-41-1.5-64.8-4.1-4.4-.5-7.5-4.5-7-8.9.5-4.3 4.4-7.4 8.7-7 23.1 2.5 46.7 4 63 4 19.3 0 45.3-2.1 63.2-4 4.4-.4 8.3 2.8 8.7 7.2.6 4.3-2.5 8.1-6.8 8.7z" fill="#000000" data-original="#000000"></path></g></g></svg>