<svg width="16" height="16" viewBox="0 0 16 16" fill="none" xmlns="http://www.w3.org/2000/svg">
<path d="M14.9688 14.7812C14.5625 13.1562 13.0938 12 11.4375 12H4.53125C2.84375 12 1.40625 13.1562 1 14.7812C0.84375 15.4062 1.34375 16 2 16H13.9688C14.625 16 15.125 15.4062 14.9688 14.7812ZM2 15C2.28125 13.8438 3.34375 13 4.53125 13H11.4062C12.5938 13 13.6562 13.8438 13.9688 15H2ZM11.0625 7C11.0625 8.65625 9.71875 10 8.0625 10C6.40625 10 5.0625 8.65625 5.0625 7C5.0625 6.75 4.84375 6.5 4.5625 6.5C4.28125 6.5 4.0625 6.75 4.0625 7C4.0625 9.21875 5.84375 11 8.0625 11C10.25 11 12.0625 9.21875 12.0625 7C12.0625 6.75 11.8438 6.5 11.5625 6.5C11.2812 6.5 11.0625 6.75 11.0625 7ZM3.5 5.5H12.5625C12.8125 5.5 13.0625 5.28125 13.0625 5C13.0625 4.75 12.8125 4.5 12.5625 4.5H12.0312C12.0312 2.46875 10.5 0.8125 8.53125 0.5625V0.5C8.53125 0.25 8.3125 0 8.03125 0C7.75 0 7.53125 0.25 7.53125 0.5V0.5625C5.53125 0.8125 4 2.46875 4 4.53125C4 4.53125 4 4.5 4 4.53125L3.5 4.5C3.21875 4.5 3 4.75 3 5C3 5.28125 3.21875 5.5 3.5 5.5ZM8.53125 1.5625C9.9375 1.8125 11.0312 3.03125 11.0312 4.5H8.53125V1.5625ZM5 4.5C5 3 6.09375 1.78125 7.53125 1.53125V4.5H5Z" fill="#24282C"/>
</svg>
